<svg width="602" height="477" xmlns="http://www.w3.org/2000/svg" xmlns:xlink="http://www.w3.org/1999/xlink" xml:space="preserve" overflow="hidden"><defs><clipPath id="clip0"><rect x="0" y="0" width="602" height="477"/></clipPath></defs><g clip-path="url(#clip0)"><path d="M366.435 108.505 373.323 108.505 373.323 128.572 366.435 128.572Z" stroke="#000000" stroke-width="0.688787" fill="#FFFFFF" transform="scale(1 1.0005)"/><path d="M366.435 148.638 373.323 148.638 373.323 168.704 366.435 168.704Z" stroke="#000000" stroke-width="0.688787" fill="#FFFFFF" transform="scale(1 1.0005)"/><path d="M366.435 235.77 373.323 235.77 373.323 280.632 366.435 280.632Z" stroke="#000000" stroke-width="0.688787" fill="#FFFFFF" transform="scale(1 1.0005)"/><path d="M369.879 261.346 376.767 261.346 376.767 280.633 369.879 280.633Z" stroke="#000000" stroke-width="0.688787" fill="#FFFFFF" transform="scale(1 1.0005)"/><path d="M366.435 396.715 373.323 396.715 373.323 416.781 366.435 416.781Z" stroke="#000000" stroke-width="0.688787" fill="#FFFFFF" transform="scale(1 1.0005)"/><path d="M366.435 447.044 373.323 447.044 373.323 467.111 366.435 467.111Z" stroke="#000000" stroke-width="0.688787" fill="#FFFFFF" transform="scale(1 1.0005)"/><path d="M502.126 310.341 509.014 310.341 509.014 355.204 502.126 355.204Z" stroke="#000000" stroke-width="0.688787" fill="#FFFFFF" transform="scale(1 1.0005)"/><path d="M505.57 335.918 512.458 335.918 512.458 355.204 505.57 355.204Z" stroke="#000000" stroke-width="0.688787" fill="#FFFFFF" transform="scale(1 1.0005)"/><path d="M10.3318 209.413 482.151 209.413 482.151 290.964 10.3318 290.964Z" stroke="#000000" stroke-width="0.688787" fill="#FFFFFF" transform="scale(1 1.0005)"/><path d="M10.3318 370.357 546.897 370.357 546.897 472.621 10.3318 472.621Z" stroke="#000000" stroke-width="0.688787" fill="#FFFFFF" transform="scale(1 1.0005)"/><path d="M10.3318 422.291 546.897 422.291 546.897 472.621 10.3318 472.621Z" fill="#FFFFFF" transform="scale(1 1.0005)"/><path d="M65.4348 56.685 65.4348 484.33" stroke="#000000" stroke-width="0.688787" stroke-dasharray="4.82151 4.82151" fill="none" transform="scale(1 1.0005)"/><path d="M369.534 56.685 369.534 484.33" stroke="#000000" stroke-width="0.688787" stroke-dasharray="4.82151 4.82151" fill="none" transform="scale(1 1.0005)"/><path d="M505.57 56.685 505.57 484.33" stroke="#000000" stroke-width="0.688787" stroke-dasharray="4.82151 4.82151" fill="none" transform="scale(1 1.0005)"/><text font-family="Verdana,Verdana_MSFontService,sans-serif" font-weight="400" font-size="14" transform="matrix(0.688787 0 0 0.689129 17.2197 54)">Healthcare Provider</text><path d="M70.9451 9.64302C70.9451 12.6863 68.478 15.1533 65.4348 15.1533 62.3915 15.1533 59.9245 12.6863 59.9245 9.64302 59.9245 6.59977 62.3915 4.13272 65.4348 4.13272 68.478 4.13272 70.9451 6.59977 70.9451 9.64302Z" stroke="#000000" stroke-width="0.688787" fill="#FFFFFF" transform="scale(1 1.0005)"/><path d="M65.4348 15.1533 65.4348 33.7506M56.4805 20.6636 74.389 20.6636M65.4348 33.7506 56.4805 44.0824M65.4348 33.7506 74.389 44.0824" stroke="#000000" stroke-width="0.688787" fill="none" transform="scale(1 1.0005)"/><text font-family="Verdana,Verdana_MSFontService,sans-serif" font-weight="400" font-size="14" transform="matrix(0.688787 0 0 0.689129 17.2197 493)">Healthcare Provider</text><path d="M70.9451 501.066C70.9451 504.109 68.478 506.576 65.4348 506.576 62.3915 506.576 59.9245 504.109 59.9245 501.066 59.9245 498.023 62.3915 495.556 65.4348 495.556 68.478 495.556 70.9451 498.023 70.9451 501.066Z" stroke="#000000" stroke-width="0.688787" fill="#FFFFFF" transform="scale(1 1.0005)"/><path d="M65.4348 506.576 65.4348 525.173M56.4805 512.086 74.389 512.086M65.4348 525.173 56.4805 535.505M65.4348 525.173 74.389 535.505" stroke="#000000" stroke-width="0.688787" fill="none" transform="scale(1 1.0005)"/><path d="M390.542 35.1281C391.493 35.1281 392.264 35.8991 392.264 36.8501L392.264 54.2743C392.264 55.2253 391.493 55.9963 390.542 55.9963L349.215 55.9963C348.264 55.9963 347.493 55.2253 347.493 54.2743L347.493 36.8501C347.493 35.8991 348.264 35.1281 349.215 35.1281Z" stroke="#000000" stroke-width="0.688787" fill="#FFFFFF" transform="scale(1 1.0005)"/><text font-family="Verdana,Verdana_MSFontService,sans-serif" font-weight="400" font-size="14" transform="matrix(0.688787 0 0 0.689129 352.315 49)">System</text><path d="M390.542 483.642C391.493 483.642 392.264 484.412 392.264 485.364L392.264 502.788C392.264 503.739 391.493 504.51 390.542 504.51L349.215 504.51C348.264 504.51 347.493 503.739 347.493 502.788L347.493 485.364C347.493 484.412 348.264 483.642 349.215 483.642Z" stroke="#000000" stroke-width="0.688787" fill="#FFFFFF" transform="scale(1 1.0005)"/><text font-family="Verdana,Verdana_MSFontService,sans-serif" font-weight="400" font-size="14" transform="matrix(0.688787 0 0 0.689129 352.315 498)">System</text><path d="M531.399 35.1281C532.35 35.1281 533.121 35.8991 533.121 36.8501L533.121 54.2743C533.121 55.2253 532.35 55.9963 531.399 55.9963L479.74 55.9963C478.789 55.9963 478.018 55.2253 478.018 54.2743L478.018 36.8501C478.018 35.8991 478.789 35.1281 479.74 35.1281Z" stroke="#000000" stroke-width="0.688787" fill="#FFFFFF" transform="scale(1 1.0005)"/><text font-family="Verdana,Verdana_MSFontService,sans-serif" font-weight="400" font-size="14" transform="matrix(0.688787 0 0 0.689129 482.84 49)">Database</text><path d="M531.399 483.642C532.35 483.642 533.121 484.412 533.121 485.364L533.121 502.788C533.121 503.739 532.35 504.51 531.399 504.51L479.74 504.51C478.789 504.51 478.018 503.739 478.018 502.788L478.018 485.364C478.018 484.412 478.789 483.642 479.74 483.642Z" stroke="#000000" stroke-width="0.688787" fill="#FFFFFF" transform="scale(1 1.0005)"/><text font-family="Verdana,Verdana_MSFontService,sans-serif" font-weight="400" font-size="14" transform="matrix(0.688787 0 0 0.689129 482.84 498)">Database</text><path d="M366.435 108.505 373.323 108.505 373.323 128.572 366.435 128.572Z" stroke="#000000" stroke-width="0.688787" fill="#FFFFFF" transform="scale(1 1.0005)"/><path d="M366.435 148.638 373.323 148.638 373.323 168.704 366.435 168.704Z" stroke="#000000" stroke-width="0.688787" fill="#FFFFFF" transform="scale(1 1.0005)"/><path d="M366.435 235.77 373.323 235.77 373.323 280.632 366.435 280.632Z" stroke="#000000" stroke-width="0.688787" fill="#FFFFFF" transform="scale(1 1.0005)"/><path d="M369.879 261.346 376.767 261.346 376.767 280.633 369.879 280.633Z" stroke="#000000" stroke-width="0.688787" fill="#FFFFFF" transform="scale(1 1.0005)"/><path d="M366.435 396.715 373.323 396.715 373.323 416.781 366.435 416.781Z" stroke="#000000" stroke-width="0.688787" fill="#FFFFFF" transform="scale(1 1.0005)"/><path d="M366.435 447.044 373.323 447.044 373.323 467.111 366.435 467.111Z" stroke="#000000" stroke-width="0.688787" fill="#FFFFFF" transform="scale(1 1.0005)"/><path d="M502.126 310.341 509.014 310.341 509.014 355.204 502.126 355.204Z" stroke="#000000" stroke-width="0.688787" fill="#FFFFFF" transform="scale(1 1.0005)"/><path d="M505.57 335.918 512.458 335.918 512.458 355.204 505.57 355.204Z" stroke="#000000" stroke-width="0.688787" fill="#FFFFFF" transform="scale(1 1.0005)"/><path d="M15.1533 63.5729 401.219 63.5729 401.219 90.5056 15.1533 90.5056Z" stroke="#000000" stroke-width="0.688787" fill="#FFFFFF" transform="scale(1 1.0005)"/><path d="M15.1533 63.5729 60.6133 63.5729 60.6133 68.3944 53.7254 75.2824 15.1533 75.2824 15.1533 63.5729" stroke="#000000" stroke-width="0.688787" fill="#FFFFFF" transform="scale(1 1.0005)"/><text font-family="Verdana,Verdana_MSFontService,sans-serif" font-weight="700" font-size="13" transform="matrix(0.688787 0 0 0.689129 24.1076 73)">ref</text><text font-family="Verdana,Verdana_MSFontService,sans-serif" font-weight="400" font-size="12" transform="matrix(0.688787 0 0 0.689129 180.29 86)">Authenticate</text><path d="M358.169 105.75 365.057 108.505 358.169 111.26 360.924 108.505Z" stroke="#000000" stroke-width="0.688787" transform="scale(1 1.0005)"/><path d="M65.4348 108.505 362.302 108.505" stroke="#000000" stroke-width="0.688787" fill="none" transform="scale(1 1.0005)"/><text font-family="Verdana,Verdana_MSFontService,sans-serif" font-weight="700" font-size="13" transform="matrix(0.688787 0 0 0.689129 70.2563 105)">1</text><text font-family="Verdana,Verdana_MSFontService,sans-serif" font-weight="400" font-size="13" transform="matrix(0.688787 0 0 0.689129 79.2105 105)">Asks for today</text><text font-family="Verdana,Verdana_MSFontService,sans-serif" font-weight="400" font-size="13" transform="matrix(0.688787 0 0 0.689129 143.81 105)">'</text><text font-family="Verdana,Verdana_MSFontService,sans-serif" font-weight="400" font-size="13" transform="matrix(0.688787 0 0 0.689129 146.214 105)">s appointments list</text><path d="M73.0114 125.817 66.1236 128.572 73.0114 131.327 70.2563 128.572Z" stroke="#000000" stroke-width="0.688787" transform="scale(1 1.0005)"/><path d="M68.8787 128.572 369.19 128.572" stroke="#000000" stroke-width="0.688787" fill="none" transform="scale(1 1.0005)"/><text font-family="Verdana,Verdana_MSFontService,sans-serif" font-weight="700" font-size="13" transform="matrix(0.688787 0 0 0.689129 77.1442 125)">2</text><text font-family="Verdana,Verdana_MSFontService,sans-serif" font-weight="400" font-size="13" transform="matrix(0.688787 0 0 0.689129 86.0984 125)">Return today</text><text font-family="Verdana,Verdana_MSFontService,sans-serif" font-weight="400" font-size="13" transform="matrix(0.688787 0 0 0.689129 144.419 125)">'</text><text font-family="Verdana,Verdana_MSFontService,sans-serif" font-weight="400" font-size="13" transform="matrix(0.688787 0 0 0.689129 146.824 125)">s appointments list</text><path d="M358.169 145.883 365.057 148.638 358.169 151.393 360.924 148.638Z" stroke="#000000" stroke-width="0.688787" transform="scale(1 1.0005)"/><path d="M65.4348 148.638 362.302 148.638" stroke="#000000" stroke-width="0.688787" fill="none" transform="scale(1 1.0005)"/><text font-family="Verdana,Verdana_MSFontService,sans-serif" font-weight="700" font-size="13" transform="matrix(0.688787 0 0 0.689129 70.2563 145)">3</text><text font-family="Verdana,Verdana_MSFontService,sans-serif" font-weight="400" font-size="13" transform="matrix(0.688787 0 0 0.689129 79.2105 145)">Select an appointment and click on </text><text font-family="Verdana,Verdana_MSFontService,sans-serif" font-weight="400" font-size="13" transform="matrix(0.688787 0 0 0.689129 240.71 145)">"</text><text font-family="Verdana,Verdana_MSFontService,sans-serif" font-weight="400" font-size="13" transform="matrix(0.688787 0 0 0.689129 244.82 145)">Begin Consultation</text><text font-family="Verdana,Verdana_MSFontService,sans-serif" font-weight="400" font-size="13" transform="matrix(0.688787 0 0 0.689129 329.278 145)">" </text><text font-family="Verdana,Verdana_MSFontService,sans-serif" font-weight="400" font-size="13" transform="matrix(0.688787 0 0 0.689129 336.535 145)">button</text><path d="M73.0114 165.949 66.1236 168.705 73.0114 171.46 70.2563 168.705Z" stroke="#000000" stroke-width="0.688787" transform="scale(1 1.0005)"/><path d="M68.8787 168.705 369.19 168.705" stroke="#000000" stroke-width="0.688787" fill="none" transform="scale(1 1.0005)"/><text font-family="Verdana,Verdana_MSFontService,sans-serif" font-weight="700" font-size="13" transform="matrix(0.688787 0 0 0.689129 77.1442 165)">4</text><text font-family="Verdana,Verdana_MSFontService,sans-serif" font-weight="400" font-size="13" transform="matrix(0.688787 0 0 0.689129 86.0984 165)">Redirect to the new consultation page</text><path d="M15.1533 174.215 401.219 174.215 401.219 201.148 15.1533 201.148Z" stroke="#000000" stroke-width="0.688787" fill="#FFFFFF" transform="scale(1 1.0005)"/><path d="M15.1533 174.215 60.6133 174.215 60.6133 179.036 53.7254 185.924 15.1533 185.924 15.1533 174.215" stroke="#000000" stroke-width="0.688787" fill="#FFFFFF" transform="scale(1 1.0005)"/><text font-family="Verdana,Verdana_MSFontService,sans-serif" font-weight="700" font-size="13" transform="matrix(0.688787 0 0 0.689129 24.1076 184)">ref</text><text font-family="Verdana,Verdana_MSFontService,sans-serif" font-weight="400" font-size="12" transform="matrix(0.688787 0 0 0.689129 161.348 196)">Create patient record</text><path d="M10.3318 209.413 63.3684 209.413 63.3684 214.326 56.4805 221.214 10.3318 221.214 10.3318 209.413" stroke="#000000" stroke-width="0.688787" fill="#FFFFFF" transform="scale(1 1.0005)"/><path d="M10.3318 209.413 482.151 209.413 482.151 290.964 10.3318 290.964Z" stroke="#000000" stroke-width="0.688787" fill="none" transform="scale(1 1.0005)"/><text font-family="Verdana,Verdana_MSFontService,sans-serif" font-weight="700" font-size="13" transform="matrix(0.688787 0 0 0.689129 20.6636 219)">loop</text><text font-family="Verdana,Verdana_MSFontService,sans-serif" font-weight="700" font-size="11" transform="matrix(0.688787 0 0 0.689129 73.7002 218)">[</text><text font-family="Verdana,Verdana_MSFontService,sans-serif" font-weight="700" font-size="11" transform="matrix(0.688787 0 0 0.689129 77.8178 218)">Form inputs are incorrects</text><text font-family="Verdana,Verdana_MSFontService,sans-serif" font-weight="700" font-size="11" transform="matrix(0.688787 0 0 0.689129 190.602 218)">]</text><path d="M358.169 233.015 365.057 235.77 358.169 238.525 360.924 235.77Z" stroke="#000000" stroke-width="0.688787" transform="scale(1 1.0005)"/><path d="M65.4348 235.77 362.302 235.77" stroke="#000000" stroke-width="0.688787" fill="none" transform="scale(1 1.0005)"/><text font-family="Verdana,Verdana_MSFontService,sans-serif" font-weight="700" font-size="13" transform="matrix(0.688787 0 0 0.689129 70.2563 232)">5</text><text font-family="Verdana,Verdana_MSFontService,sans-serif" font-weight="400" font-size="13" transform="matrix(0.688787 0 0 0.689129 79.2105 232)">Fill the consultation form fields and save</text><path d="M376.767 255.836 405.696 255.836" stroke="#000000" stroke-width="0.688787" fill="none" transform="scale(1 1.0005)"/><path d="M405.696 255.836 405.696 264.79" stroke="#000000" stroke-width="0.688787" fill="none" transform="scale(1 1.0005)"/><path d="M377.455 264.79 405.696 264.79" stroke="#000000" stroke-width="0.688787" fill="none" transform="scale(1 1.0005)"/><path d="M384.343 262.035 377.455 264.79 384.343 267.546 381.588 264.79Z" stroke="#000000" stroke-width="0.688787" transform="scale(1 1.0005)"/><text font-family="Verdana,Verdana_MSFontService,sans-serif" font-weight="700" font-size="13" transform="matrix(0.688787 0 0 0.689129 381.588 252)">6</text><text font-family="Verdana,Verdana_MSFontService,sans-serif" font-weight="400" font-size="13" transform="matrix(0.688787 0 0 0.689129 390.542 252)">Validate the form</text><path d="M493.86 307.586 500.748 310.341 493.86 313.096 496.616 310.341Z" stroke="#000000" stroke-width="0.688787" transform="scale(1 1.0005)"/><path d="M369.879 310.341 497.993 310.341" stroke="#000000" stroke-width="0.688787" fill="none" transform="scale(1 1.0005)"/><text font-family="Verdana,Verdana_MSFontService,sans-serif" font-weight="700" font-size="13" transform="matrix(0.688787 0 0 0.689129 374.7 307)">7</text><text font-family="Verdana,Verdana_MSFontService,sans-serif" font-weight="400" font-size="13" transform="matrix(0.688787 0 0 0.689129 383.654 307)">Send request</text><path d="M512.458 330.408 541.387 330.408" stroke="#000000" stroke-width="0.688787" fill="none" transform="scale(1 1.0005)"/><path d="M541.387 330.408 541.387 339.362" stroke="#000000" stroke-width="0.688787" fill="none" transform="scale(1 1.0005)"/><path d="M513.146 339.362 541.387 339.362" stroke="#000000" stroke-width="0.688787" fill="none" transform="scale(1 1.0005)"/><path d="M520.034 336.607 513.146 339.362 520.034 342.117 517.279 339.362Z" stroke="#000000" stroke-width="0.688787" transform="scale(1 1.0005)"/><text font-family="Verdana,Verdana_MSFontService,sans-serif" font-weight="700" font-size="13" transform="matrix(0.688787 0 0 0.689129 517.279 327)">8</text><text font-family="Verdana,Verdana_MSFontService,sans-serif" font-weight="400" font-size="13" transform="matrix(0.688787 0 0 0.689129 526.233 327)">Process request</text><path d="M10.3318 370.357 54.4142 370.357 54.4142 375.271 47.5263 382.158 10.3318 382.158 10.3318 370.357" stroke="#000000" stroke-width="0.688787" fill="#FFFFFF" transform="scale(1 1.0005)"/><path d="M10.3318 370.357 546.897 370.357 546.897 472.621 10.3318 472.621Z" stroke="#000000" stroke-width="0.688787" fill="none" transform="scale(1 1.0005)"/><text font-family="Verdana,Verdana_MSFontService,sans-serif" font-weight="700" font-size="13" transform="matrix(0.688787 0 0 0.689129 20.6636 380)">alt</text><text font-family="Verdana,Verdana_MSFontService,sans-serif" font-weight="700" font-size="11" transform="matrix(0.688787 0 0 0.689129 64.746 379)">[</text><text font-family="Verdana,Verdana_MSFontService,sans-serif" font-weight="700" font-size="11" transform="matrix(0.688787 0 0 0.689129 68.8636 379)">Consultation saved successfully</text><text font-family="Verdana,Verdana_MSFontService,sans-serif" font-weight="700" font-size="11" transform="matrix(0.688787 0 0 0.689129 204.108 379)">]</text><path d="M380.899 393.959 374.011 396.715 380.899 399.47 378.144 396.715Z" stroke="#000000" stroke-width="0.688787" transform="scale(1 1.0005)"/><path d="M376.767 396.715 504.881 396.715" stroke="#000000" stroke-width="0.688787" fill="none" transform="scale(1 1.0005)"/><text font-family="Verdana,Verdana_MSFontService,sans-serif" font-weight="700" font-size="13" transform="matrix(0.688787 0 0 0.689129 385.032 393)">9</text><text font-family="Verdana,Verdana_MSFontService,sans-serif" font-weight="400" font-size="13" transform="matrix(0.688787 0 0 0.689129 393.986 393)">Return success message</text><path d="M73.0114 414.026 66.1236 416.781 73.0114 419.536 70.2563 416.781Z" stroke="#000000" stroke-width="0.688787" transform="scale(1 1.0005)"/><path d="M68.8787 416.781 369.19 416.781" stroke="#000000" stroke-width="0.688787" fill="none" transform="scale(1 1.0005)"/><text font-family="Verdana,Verdana_MSFontService,sans-serif" font-weight="700" font-size="13" transform="matrix(0.688787 0 0 0.689129 77.1442 413)">10</text><text font-family="Verdana,Verdana_MSFontService,sans-serif" font-weight="400" font-size="13" transform="matrix(0.688787 0 0 0.689129 92.2975 413)">Display success message</text><path d="M10.3318 422.98 546.897 422.98" stroke="#000000" stroke-width="0.688787" stroke-dasharray="1.37757 1.37757" fill="none" transform="scale(1 1.0005)"/><text font-family="Verdana,Verdana_MSFontService,sans-serif" font-weight="700" font-size="11" transform="matrix(0.688787 0 0 0.689129 13.7757 430)">[</text><text font-family="Verdana,Verdana_MSFontService,sans-serif" font-weight="700" font-size="11" transform="matrix(0.688787 0 0 0.689129 17.8933 430)">Consultation has not been saved</text><text font-family="Verdana,Verdana_MSFontService,sans-serif" font-weight="700" font-size="11" transform="matrix(0.688787 0 0 0.689129 156.541 430)">]</text><path d="M380.899 444.289 374.011 447.044 380.899 449.799 378.144 447.044Z" stroke="#000000" stroke-width="0.688787" transform="scale(1 1.0005)"/><path d="M376.767 447.044 504.881 447.044" stroke="#000000" stroke-width="0.688787" fill="none" transform="scale(1 1.0005)"/><text font-family="Verdana,Verdana_MSFontService,sans-serif" font-weight="700" font-size="13" transform="matrix(0.688787 0 0 0.689129 385.032 444)">11</text><text font-family="Verdana,Verdana_MSFontService,sans-serif" font-weight="400" font-size="13" transform="matrix(0.688787 0 0 0.689129 400.185 444)">Return error message</text><path d="M73.0114 464.355 66.1236 467.111 73.0114 469.866 70.2563 467.111Z" stroke="#000000" stroke-width="0.688787" transform="scale(1 1.0005)"/><path d="M68.8787 467.111 369.19 467.111" stroke="#000000" stroke-width="0.688787" fill="none" transform="scale(1 1.0005)"/><text font-family="Verdana,Verdana_MSFontService,sans-serif" font-weight="700" font-size="13" transform="matrix(0.688787 0 0 0.689129 77.1442 464)">12</text><text font-family="Verdana,Verdana_MSFontService,sans-serif" font-weight="400" font-size="13" transform="matrix(0.688787 0 0 0.689129 92.2975 464)">Display error message</text></g></svg>