<svg width="602" height="514" xmlns="http://www.w3.org/2000/svg" xmlns:xlink="http://www.w3.org/1999/xlink" xml:space="preserve" overflow="hidden"><defs><clipPath id="clip0"><rect x="0" y="0" width="602" height="514"/></clipPath></defs><g clip-path="url(#clip0)"><path d="M301.564 138.098 310.331 138.098 310.331 184.793 301.564 184.793Z" stroke="#000000" stroke-width="0.876641" fill="#FFFFFF" transform="scale(1.00104 1)"/><path d="M301.564 210.332 310.331 210.332 310.331 267.431 301.564 267.431Z" stroke="#000000" stroke-width="0.876641" fill="#FFFFFF" transform="scale(1.00104 1)"/><path d="M305.948 242.884 314.714 242.884 314.714 267.43 305.948 267.43Z" stroke="#000000" stroke-width="0.876641" fill="#FFFFFF" transform="scale(1.00104 1)"/><path d="M301.564 415.172 310.331 415.172 310.331 440.711 301.564 440.711Z" stroke="#000000" stroke-width="0.876641" fill="#FFFFFF" transform="scale(1.00104 1)"/><path d="M301.564 479.228 310.331 479.228 310.331 504.767 301.564 504.767Z" stroke="#000000" stroke-width="0.876641" fill="#FFFFFF" transform="scale(1.00104 1)"/><path d="M474.263 305.242 483.029 305.242 483.029 362.34 474.263 362.34Z" stroke="#000000" stroke-width="0.876641" fill="#FFFFFF" transform="scale(1.00104 1)"/><path d="M478.646 337.794 487.412 337.794 487.412 362.34 478.646 362.34Z" stroke="#000000" stroke-width="0.876641" fill="#FFFFFF" transform="scale(1.00104 1)"/><path d="M13.1496 151.248 448.84 151.248 448.84 280.579 13.1496 280.579Z" stroke="#000000" stroke-width="0.876641" fill="#FFFFFF" transform="scale(1.00104 1)"/><path d="M13.1496 381.626 531.244 381.626 531.244 511.78 13.1496 511.78Z" stroke="#000000" stroke-width="0.876641" fill="#FFFFFF" transform="scale(1.00104 1)"/><path d="M13.1496 447.724 531.244 447.724 531.244 511.781 13.1496 511.781Z" fill="#FFFFFF" transform="scale(1.00104 1)"/><path d="M83.2809 72.1448 83.2809 526.683" stroke="#000000" stroke-width="0.876641" stroke-dasharray="6.13649 6.13649" fill="none" transform="scale(1.00104 1)"/><path d="M305.509 72.1448 305.509 526.683" stroke="#000000" stroke-width="0.876641" stroke-dasharray="6.13649 6.13649" fill="none" transform="scale(1.00104 1)"/><path d="M478.646 72.1448 478.646 526.683" stroke="#000000" stroke-width="0.876641" stroke-dasharray="6.13649 6.13649" fill="none" transform="scale(1.00104 1)"/><text font-family="Verdana,Verdana_MSFontService,sans-serif" font-weight="400" font-size="14" transform="matrix(0.877551 0 0 0.876641 21.9388 69)">Healthcare Provider</text><path d="M90.294 12.273C90.294 16.1462 87.1541 19.2861 83.2809 19.2861 79.4076 19.2861 76.2678 16.1462 76.2678 12.273 76.2678 8.39973 79.4076 5.25985 83.2809 5.25985 87.1541 5.25985 90.294 8.39973 90.294 12.273Z" stroke="#000000" stroke-width="0.876641" fill="#FFFFFF" transform="scale(1.00104 1)"/><path d="M83.2809 19.2861 83.2809 42.9554M71.8846 26.2992 94.6772 26.2992M83.2809 42.9554 71.8846 56.105M83.2809 42.9554 94.6772 56.105" stroke="#000000" stroke-width="0.876641" fill="none" transform="scale(1.00104 1)"/><text font-family="Verdana,Verdana_MSFontService,sans-serif" font-weight="400" font-size="14" transform="matrix(0.877551 0 0 0.876641 21.9388 537)">Healthcare Provider</text><path d="M90.294 547.983C90.294 551.856 87.1541 554.996 83.2809 554.996 79.4076 554.996 76.2678 551.856 76.2678 547.983 76.2678 544.11 79.4076 540.97 83.2809 540.97 87.1541 540.97 90.294 544.11 90.294 547.983Z" stroke="#000000" stroke-width="0.876641" fill="#FFFFFF" transform="scale(1.00104 1)"/><path d="M83.2809 554.996 83.2809 578.665M71.8846 562.009 94.6772 562.009M83.2809 578.665 71.8846 591.815M83.2809 578.665 94.6772 591.815" stroke="#000000" stroke-width="0.876641" fill="none" transform="scale(1.00104 1)"/><path d="M332.247 44.7087C333.457 44.7087 334.438 45.6899 334.438 46.9003L334.438 69.0766C334.438 70.287 333.457 71.2682 332.247 71.2682L279.648 71.2682C278.438 71.2682 277.457 70.287 277.457 69.0766L277.457 46.9003C277.457 45.6899 278.438 44.7087 279.648 44.7087Z" stroke="#000000" stroke-width="0.876641" fill="#FFFFFF" transform="scale(1.00104 1)"/><text font-family="Verdana,Verdana_MSFontService,sans-serif" font-weight="400" font-size="14" transform="matrix(0.877551 0 0 0.876641 283.888 62)">System</text><path d="M332.247 525.807C333.457 525.807 334.438 526.788 334.438 527.998L334.438 550.174C334.438 551.385 333.457 552.366 332.247 552.366L279.648 552.366C278.438 552.366 277.457 551.385 277.457 550.174L277.457 527.998C277.457 526.788 278.438 525.807 279.648 525.807Z" stroke="#000000" stroke-width="0.876641" fill="#FFFFFF" transform="scale(1.00104 1)"/><text font-family="Verdana,Verdana_MSFontService,sans-serif" font-weight="400" font-size="14" transform="matrix(0.877551 0 0 0.876641 283.888 543)">System</text><path d="M511.52 44.7087C512.73 44.7087 513.712 45.6899 513.712 46.9003L513.712 69.0766C513.712 70.287 512.73 71.2682 511.52 71.2682L445.772 71.2682C444.561 71.2682 443.58 70.287 443.58 69.0766L443.58 46.9003C443.58 45.6899 444.561 44.7087 445.772 44.7087Z" stroke="#000000" stroke-width="0.876641" fill="#FFFFFF" transform="scale(1.00104 1)"/><text font-family="Verdana,Verdana_MSFontService,sans-serif" font-weight="400" font-size="14" transform="matrix(0.877551 0 0 0.876641 450.184 62)">Database</text><path d="M511.52 525.807C512.73 525.807 513.712 526.788 513.712 527.998L513.712 550.174C513.712 551.385 512.73 552.366 511.52 552.366L445.772 552.366C444.561 552.366 443.58 551.385 443.58 550.174L443.58 527.998C443.58 526.788 444.561 525.807 445.772 525.807Z" stroke="#000000" stroke-width="0.876641" fill="#FFFFFF" transform="scale(1.00104 1)"/><text font-family="Verdana,Verdana_MSFontService,sans-serif" font-weight="400" font-size="14" transform="matrix(0.877551 0 0 0.876641 450.184 543)">Database</text><path d="M301.564 138.098 310.331 138.098 310.331 184.793 301.564 184.793Z" stroke="#000000" stroke-width="0.876641" fill="#FFFFFF" transform="scale(1.00104 1)"/><path d="M301.564 210.332 310.331 210.332 310.331 267.431 301.564 267.431Z" stroke="#000000" stroke-width="0.876641" fill="#FFFFFF" transform="scale(1.00104 1)"/><path d="M305.948 242.884 314.714 242.884 314.714 267.43 305.948 267.43Z" stroke="#000000" stroke-width="0.876641" fill="#FFFFFF" transform="scale(1.00104 1)"/><path d="M301.564 415.172 310.331 415.172 310.331 440.711 301.564 440.711Z" stroke="#000000" stroke-width="0.876641" fill="#FFFFFF" transform="scale(1.00104 1)"/><path d="M301.564 479.228 310.331 479.228 310.331 504.767 301.564 504.767Z" stroke="#000000" stroke-width="0.876641" fill="#FFFFFF" transform="scale(1.00104 1)"/><path d="M474.263 305.242 483.029 305.242 483.029 362.34 474.263 362.34Z" stroke="#000000" stroke-width="0.876641" fill="#FFFFFF" transform="scale(1.00104 1)"/><path d="M478.646 337.794 487.412 337.794 487.412 362.34 478.646 362.34Z" stroke="#000000" stroke-width="0.876641" fill="#FFFFFF" transform="scale(1.00104 1)"/><path d="M19.2861 80.9112 345.835 80.9112 345.835 115.189 19.2861 115.189Z" stroke="#000000" stroke-width="0.876641" fill="#FFFFFF" transform="scale(1.00104 1)"/><path d="M19.2861 80.9112 77.1444 80.9112 77.1444 87.0477 68.378 95.8142 19.2861 95.8142 19.2861 80.9112" stroke="#000000" stroke-width="0.876641" fill="#FFFFFF" transform="scale(1.00104 1)"/><text font-family="Verdana,Verdana_MSFontService,sans-serif" font-weight="700" font-size="13" transform="matrix(0.877551 0 0 0.876641 30.7143 93)">ref</text><text font-family="Verdana,Verdana_MSFontService,sans-serif" font-weight="400" font-size="12" transform="matrix(0.877551 0 0 0.876641 147.209 109)">Authenticate</text><path d="M291.045 134.592 299.811 138.098 291.045 141.605 294.551 138.098Z" stroke="#000000" stroke-width="0.876641" transform="scale(1.00104 1)"/><path d="M83.2809 138.098 296.305 138.098" stroke="#000000" stroke-width="0.876641" fill="none" transform="scale(1.00104 1)"/><text font-family="Verdana,Verdana_MSFontService,sans-serif" font-weight="700" font-size="13" transform="matrix(0.877551 0 0 0.876641 89.5102 134)">1</text><text font-family="Verdana,Verdana_MSFontService,sans-serif" font-weight="400" font-size="13" transform="matrix(0.877551 0 0 0.876641 100.918 134)">Asks for the patient creation page</text><path d="M13.1496 151.248 80.651 151.248 80.651 157.501 71.8846 166.267 13.1496 166.267 13.1496 151.248" stroke="#000000" stroke-width="0.876641" fill="#FFFFFF" transform="scale(1.00104 1)"/><path d="M13.1496 151.248 448.84 151.248 448.84 280.579 13.1496 280.579Z" stroke="#000000" stroke-width="0.876641" fill="none" transform="scale(1.00104 1)"/><text font-family="Verdana,Verdana_MSFontService,sans-serif" font-weight="700" font-size="13" transform="matrix(0.877551 0 0 0.876641 26.3265 163)">loop</text><text font-family="Verdana,Verdana_MSFontService,sans-serif" font-weight="700" font-size="11" transform="matrix(0.877551 0 0 0.876641 93.898 162)">[</text><text font-family="Verdana,Verdana_MSFontService,sans-serif" font-weight="700" font-size="11" transform="matrix(0.877551 0 0 0.876641 99.144 162)">Form inputs are incorrects</text><text font-family="Verdana,Verdana_MSFontService,sans-serif" font-weight="700" font-size="11" transform="matrix(0.877551 0 0 0.876641 242.837 162)">]</text><path d="M92.9239 181.287 84.1575 184.793 92.9239 188.3 89.4174 184.793Z" stroke="#000000" stroke-width="0.876641" transform="scale(1.00104 1)"/><path d="M87.6641 184.793 305.071 184.793" stroke="#000000" stroke-width="0.876641" fill="none" transform="scale(1.00104 1)"/><text font-family="Verdana,Verdana_MSFontService,sans-serif" font-weight="700" font-size="13" transform="matrix(0.877551 0 0 0.876641 98.2857 180)">2</text><text font-family="Verdana,Verdana_MSFontService,sans-serif" font-weight="400" font-size="13" transform="matrix(0.877551 0 0 0.876641 109.694 180)">Return the patient creation page</text><path d="M291.045 206.826 299.811 210.332 291.045 213.839 294.551 210.332Z" stroke="#000000" stroke-width="0.876641" transform="scale(1.00104 1)"/><path d="M83.2809 210.332 296.305 210.332" stroke="#000000" stroke-width="0.876641" fill="none" transform="scale(1.00104 1)"/><text font-family="Verdana,Verdana_MSFontService,sans-serif" font-weight="700" font-size="13" transform="matrix(0.877551 0 0 0.876641 89.5102 206)">3</text><text font-family="Verdana,Verdana_MSFontService,sans-serif" font-weight="400" font-size="13" transform="matrix(0.877551 0 0 0.876641 100.918 206)">Fill in the required fields</text><path d="M314.714 235.871 351.533 235.871" stroke="#000000" stroke-width="0.876641" fill="none" transform="scale(1.00104 1)"/><path d="M351.533 235.871 351.533 247.267" stroke="#000000" stroke-width="0.876641" fill="none" transform="scale(1.00104 1)"/><path d="M315.591 247.267 351.533 247.267" stroke="#000000" stroke-width="0.876641" fill="none" transform="scale(1.00104 1)"/><path d="M324.357 243.761 315.591 247.267 324.357 250.774 320.851 247.267Z" stroke="#000000" stroke-width="0.876641" transform="scale(1.00104 1)"/><text font-family="Verdana,Verdana_MSFontService,sans-serif" font-weight="700" font-size="13" transform="matrix(0.877551 0 0 0.876641 321.184 231)">4</text><text font-family="Verdana,Verdana_MSFontService,sans-serif" font-weight="400" font-size="13" transform="matrix(0.877551 0 0 0.876641 332.592 231)">Validate the form</text><path d="M463.743 301.735 472.509 305.242 463.743 308.749 467.25 305.242Z" stroke="#000000" stroke-width="0.876641" transform="scale(1.00104 1)"/><path d="M305.948 305.242 469.003 305.242" stroke="#000000" stroke-width="0.876641" fill="none" transform="scale(1.00104 1)"/><text font-family="Verdana,Verdana_MSFontService,sans-serif" font-weight="700" font-size="13" transform="matrix(0.877551 0 0 0.876641 312.408 301)">5</text><text font-family="Verdana,Verdana_MSFontService,sans-serif" font-weight="400" font-size="13" transform="matrix(0.877551 0 0 0.876641 323.816 301)">Send request</text><path d="M487.412 330.781 524.231 330.781" stroke="#000000" stroke-width="0.876641" fill="none" transform="scale(1.00104 1)"/><path d="M524.231 330.781 524.231 342.177" stroke="#000000" stroke-width="0.876641" fill="none" transform="scale(1.00104 1)"/><path d="M488.289 342.177 524.231 342.177" stroke="#000000" stroke-width="0.876641" fill="none" transform="scale(1.00104 1)"/><path d="M497.055 338.671 488.289 342.177 497.055 345.684 493.549 342.177Z" stroke="#000000" stroke-width="0.876641" transform="scale(1.00104 1)"/><text font-family="Verdana,Verdana_MSFontService,sans-serif" font-weight="700" font-size="13" transform="matrix(0.877551 0 0 0.876641 494.061 326)">6</text><text font-family="Verdana,Verdana_MSFontService,sans-serif" font-weight="400" font-size="13" transform="matrix(0.877551 0 0 0.876641 505.469 326)">Process request</text><path d="M13.1496 381.626 69.2546 381.626 69.2546 387.879 60.4882 396.646 13.1496 396.646 13.1496 381.626" stroke="#000000" stroke-width="0.876641" fill="#FFFFFF" transform="scale(1.00104 1)"/><path d="M13.1496 381.626 531.244 381.626 531.244 511.78 13.1496 511.78Z" stroke="#000000" stroke-width="0.876641" fill="none" transform="scale(1.00104 1)"/><text font-family="Verdana,Verdana_MSFontService,sans-serif" font-weight="700" font-size="13" transform="matrix(0.877551 0 0 0.876641 26.3265 393)">alt</text><text font-family="Verdana,Verdana_MSFontService,sans-serif" font-weight="700" font-size="11" transform="matrix(0.877551 0 0 0.876641 82.4898 392)">[</text><text font-family="Verdana,Verdana_MSFontService,sans-serif" font-weight="700" font-size="11" transform="matrix(0.877551 0 0 0.876641 87.7358 392)">Patient already exists</text><text font-family="Verdana,Verdana_MSFontService,sans-serif" font-weight="700" font-size="11" transform="matrix(0.877551 0 0 0.876641 205.694 392)">]</text><path d="M319.974 411.665 311.207 415.172 319.974 418.678 316.467 415.172Z" stroke="#000000" stroke-width="0.876641" transform="scale(1.00104 1)"/><path d="M314.714 415.172 477.769 415.172" stroke="#000000" stroke-width="0.876641" fill="none" transform="scale(1.00104 1)"/><text font-family="Verdana,Verdana_MSFontService,sans-serif" font-weight="700" font-size="13" transform="matrix(0.877551 0 0 0.876641 325.571 411)">7</text><text font-family="Verdana,Verdana_MSFontService,sans-serif" font-weight="400" font-size="13" transform="matrix(0.877551 0 0 0.876641 336.98 411)">Return error message</text><path d="M92.9239 437.204 84.1575 440.711 92.9239 444.218 89.4174 440.711Z" stroke="#000000" stroke-width="0.876641" transform="scale(1.00104 1)"/><path d="M87.6641 440.711 305.071 440.711" stroke="#000000" stroke-width="0.876641" fill="none" transform="scale(1.00104 1)"/><text font-family="Verdana,Verdana_MSFontService,sans-serif" font-weight="700" font-size="13" transform="matrix(0.877551 0 0 0.876641 98.2857 436)">8</text><text font-family="Verdana,Verdana_MSFontService,sans-serif" font-weight="400" font-size="13" transform="matrix(0.877551 0 0 0.876641 109.694 436)">Display error message</text><path d="M13.1496 448.601 531.244 448.601" stroke="#000000" stroke-width="0.876641" stroke-dasharray="1.75328 1.75328" fill="none" transform="scale(1.00104 1)"/><text font-family="Verdana,Verdana_MSFontService,sans-serif" font-weight="700" font-size="11" transform="matrix(0.877551 0 0 0.876641 17.551 458)">[</text><text font-family="Verdana,Verdana_MSFontService,sans-serif" font-weight="700" font-size="11" transform="matrix(0.877551 0 0 0.876641 22.797 458)">Patient does not exist</text><text font-family="Verdana,Verdana_MSFontService,sans-serif" font-weight="700" font-size="11" transform="matrix(0.877551 0 0 0.876641 141.306 458)">]</text><path d="M319.974 475.721 311.207 479.228 319.974 482.735 316.467 479.228Z" stroke="#000000" stroke-width="0.876641" transform="scale(1.00104 1)"/><path d="M314.714 479.228 477.769 479.228" stroke="#000000" stroke-width="0.876641" fill="none" transform="scale(1.00104 1)"/><text font-family="Verdana,Verdana_MSFontService,sans-serif" font-weight="700" font-size="13" transform="matrix(0.877551 0 0 0.876641 325.571 475)">9</text><text font-family="Verdana,Verdana_MSFontService,sans-serif" font-weight="400" font-size="13" transform="matrix(0.877551 0 0 0.876641 336.98 475)">Return success message</text><path d="M92.9239 501.261 84.1575 504.767 92.9239 508.274 89.4174 504.767Z" stroke="#000000" stroke-width="0.876641" transform="scale(1.00104 1)"/><path d="M87.6641 504.767 305.071 504.767" stroke="#000000" stroke-width="0.876641" fill="none" transform="scale(1.00104 1)"/><text font-family="Verdana,Verdana_MSFontService,sans-serif" font-weight="700" font-size="13" transform="matrix(0.877551 0 0 0.876641 98.2857 500)">10</text><text font-family="Verdana,Verdana_MSFontService,sans-serif" font-weight="400" font-size="13" transform="matrix(0.877551 0 0 0.876641 117.592 500)">Display success message</text></g></svg>