<svg width="602" height="552" xmlns="http://www.w3.org/2000/svg" xmlns:xlink="http://www.w3.org/1999/xlink" xml:space="preserve" overflow="hidden"><defs><clipPath id="clip0"><rect x="0" y="0" width="602" height="552"/></clipPath></defs><g clip-path="url(#clip0)"><path d="M309.014 123.866 316.877 123.866 316.877 146.773 309.014 146.773Z" stroke="#000000" stroke-width="0.786296" fill="#FFFFFF" transform="scale(1.0008 1)"/><path d="M309.014 215.494 316.877 215.494 316.877 238.401 309.014 238.401Z" stroke="#000000" stroke-width="0.786296" fill="#FFFFFF" transform="scale(1.0008 1)"/><path d="M309.014 280.284 316.877 280.284 316.877 303.191 309.014 303.191Z" stroke="#000000" stroke-width="0.786296" fill="#FFFFFF" transform="scale(1.0008 1)"/><path d="M309.014 337.739 316.877 337.739 316.877 360.646 309.014 360.646Z" stroke="#000000" stroke-width="0.786296" fill="#FFFFFF" transform="scale(1.0008 1)"/><path d="M309.014 459.246 316.877 459.246 316.877 482.153 309.014 482.153Z" stroke="#000000" stroke-width="0.786296" fill="#FFFFFF" transform="scale(1.0008 1)"/><path d="M309.014 516.701 316.877 516.701 316.877 539.608 309.014 539.608Z" stroke="#000000" stroke-width="0.786296" fill="#FFFFFF" transform="scale(1.0008 1)"/><path d="M470.992 146.773 478.854 146.773 478.854 169.68 470.992 169.68Z" stroke="#000000" stroke-width="0.786296" fill="#FFFFFF" transform="scale(1.0008 1)"/><path d="M470.992 360.646 478.854 360.646 478.854 411.86 470.992 411.86Z" stroke="#000000" stroke-width="0.786296" fill="#FFFFFF" transform="scale(1.0008 1)"/><path d="M474.923 389.843 482.786 389.843 482.786 411.86 474.923 411.86Z" stroke="#000000" stroke-width="0.786296" fill="#FFFFFF" transform="scale(1.0008 1)"/><path d="M11.7944 250.196 596.013 250.196 596.013 551.402 11.7944 551.402Z" stroke="#000000" stroke-width="0.786296" fill="#FFFFFF" transform="scale(1.0008 1)"/><path d="M11.7944 309.482 596.013 309.482 596.013 551.403 11.7944 551.403Z" fill="#FFFFFF" transform="scale(1.0008 1)"/><path d="M19.6574 429.158 522.101 429.158 522.101 545.899 19.6574 545.899Z" stroke="#000000" stroke-width="0.786296" fill="#FFFFFF" transform="scale(1.0008 1)"/><path d="M19.6574 488.443 522.101 488.443 522.101 545.898 19.6574 545.898Z" fill="#FFFFFF" transform="scale(1.0008 1)"/><path d="M82.5611 64.7098 82.5611 564.77" stroke="#000000" stroke-width="0.786296" stroke-dasharray="5.50407 5.50407" fill="none" transform="scale(1.0008 1)"/><path d="M312.553 64.7098 312.553 564.77" stroke="#000000" stroke-width="0.786296" stroke-dasharray="5.50407 5.50407" fill="none" transform="scale(1.0008 1)"/><path d="M474.923 64.7098 474.923 564.77" stroke="#000000" stroke-width="0.786296" stroke-dasharray="5.50407 5.50407" fill="none" transform="scale(1.0008 1)"/><text font-family="Verdana,Verdana_MSFontService,sans-serif" font-weight="400" font-size="14" transform="matrix(0.786928 0 0 0.786296 27.5425 62)">Healthcare Provider</text><path d="M88.8515 11.0081C88.8515 14.4822 86.0352 17.2985 82.5611 17.2985 79.087 17.2985 76.2707 14.4822 76.2707 11.0081 76.2707 7.53407 79.087 4.71778 82.5611 4.71778 86.0352 4.71778 88.8515 7.53407 88.8515 11.0081Z" stroke="#000000" stroke-width="0.786296" fill="#FFFFFF" transform="scale(1.0008 1)"/><path d="M82.5611 17.2985 82.5611 38.5285M72.3393 23.5889 92.783 23.5889M82.5611 38.5285 72.3393 50.323M82.5611 38.5285 92.783 50.323" stroke="#000000" stroke-width="0.786296" fill="none" transform="scale(1.0008 1)"/><text font-family="Verdana,Verdana_MSFontService,sans-serif" font-weight="400" font-size="14" transform="matrix(0.786928 0 0 0.786296 27.5425 574)">Healthcare Provider</text><path d="M88.8515 583.874C88.8515 587.348 86.0352 590.164 82.5611 590.164 79.087 590.164 76.2707 587.348 76.2707 583.874 76.2707 580.4 79.087 577.583 82.5611 577.583 86.0352 577.583 88.8515 580.4 88.8515 583.874Z" stroke="#000000" stroke-width="0.786296" fill="#FFFFFF" transform="scale(1.0008 1)"/><path d="M82.5611 590.164 82.5611 611.394M72.3393 596.455 92.783 596.455M82.5611 611.394 72.3393 623.189M82.5611 611.394 92.783 623.189" stroke="#000000" stroke-width="0.786296" fill="none" transform="scale(1.0008 1)"/><path d="M336.535 40.1011C337.62 40.1011 338.501 40.9812 338.501 42.0669L338.501 61.9577C338.501 63.0434 337.62 63.9235 336.535 63.9235L289.357 63.9235C288.271 63.9235 287.391 63.0434 287.391 61.9577L287.391 42.0669C287.391 40.9812 288.271 40.1011 289.357 40.1011Z" stroke="#000000" stroke-width="0.786296" fill="#FFFFFF" transform="scale(1.0008 1)"/><text font-family="Verdana,Verdana_MSFontService,sans-serif" font-weight="400" font-size="14" transform="matrix(0.786928 0 0 0.786296 293.131 56)">System</text><path d="M336.535 563.984C337.62 563.984 338.501 564.864 338.501 565.949L338.501 585.84C338.501 586.926 337.62 587.806 336.535 587.806L289.357 587.806C288.271 587.806 287.391 586.926 287.391 585.84L287.391 565.949C287.391 564.864 288.271 563.984 289.357 563.984Z" stroke="#000000" stroke-width="0.786296" fill="#FFFFFF" transform="scale(1.0008 1)"/><text font-family="Verdana,Verdana_MSFontService,sans-serif" font-weight="400" font-size="14" transform="matrix(0.786928 0 0 0.786296 293.131 580)">System</text><path d="M504.409 40.1011C505.495 40.1011 506.375 40.9812 506.375 42.0669L506.375 61.9577C506.375 63.0434 505.495 63.9235 504.409 63.9235L445.437 63.9235C444.351 63.9235 443.471 63.0434 443.471 61.9577L443.471 42.0669C443.471 40.9812 444.351 40.1011 445.437 40.1011Z" stroke="#000000" stroke-width="0.786296" fill="#FFFFFF" transform="scale(1.0008 1)"/><text font-family="Verdana,Verdana_MSFontService,sans-serif" font-weight="400" font-size="14" transform="matrix(0.786928 0 0 0.786296 449.336 56)">Database</text><path d="M504.409 563.984C505.495 563.984 506.375 564.864 506.375 565.949L506.375 585.84C506.375 586.926 505.495 587.806 504.409 587.806L445.437 587.806C444.351 587.806 443.471 586.926 443.471 585.84L443.471 565.949C443.471 564.864 444.351 563.984 445.437 563.984Z" stroke="#000000" stroke-width="0.786296" fill="#FFFFFF" transform="scale(1.0008 1)"/><text font-family="Verdana,Verdana_MSFontService,sans-serif" font-weight="400" font-size="14" transform="matrix(0.786928 0 0 0.786296 449.336 580)">Database</text><path d="M309.014 123.866 316.877 123.866 316.877 146.773 309.014 146.773Z" stroke="#000000" stroke-width="0.786296" fill="#FFFFFF" transform="scale(1.0008 1)"/><path d="M309.014 215.494 316.877 215.494 316.877 238.401 309.014 238.401Z" stroke="#000000" stroke-width="0.786296" fill="#FFFFFF" transform="scale(1.0008 1)"/><path d="M309.014 280.284 316.877 280.284 316.877 303.191 309.014 303.191Z" stroke="#000000" stroke-width="0.786296" fill="#FFFFFF" transform="scale(1.0008 1)"/><path d="M309.014 337.739 316.877 337.739 316.877 360.646 309.014 360.646Z" stroke="#000000" stroke-width="0.786296" fill="#FFFFFF" transform="scale(1.0008 1)"/><path d="M309.014 459.246 316.877 459.246 316.877 482.153 309.014 482.153Z" stroke="#000000" stroke-width="0.786296" fill="#FFFFFF" transform="scale(1.0008 1)"/><path d="M309.014 516.701 316.877 516.701 316.877 539.608 309.014 539.608Z" stroke="#000000" stroke-width="0.786296" fill="#FFFFFF" transform="scale(1.0008 1)"/><path d="M470.992 146.773 478.854 146.773 478.854 169.68 470.992 169.68Z" stroke="#000000" stroke-width="0.786296" fill="#FFFFFF" transform="scale(1.0008 1)"/><path d="M470.992 360.646 478.854 360.646 478.854 411.86 470.992 411.86Z" stroke="#000000" stroke-width="0.786296" fill="#FFFFFF" transform="scale(1.0008 1)"/><path d="M474.923 389.843 482.786 389.843 482.786 411.86 474.923 411.86Z" stroke="#000000" stroke-width="0.786296" fill="#FFFFFF" transform="scale(1.0008 1)"/><path d="M25.1615 72.5727 348.722 72.5727 348.722 103.318 25.1615 103.318Z" stroke="#000000" stroke-width="0.786296" fill="#FFFFFF" transform="scale(1.0008 1)"/><path d="M25.1615 72.5727 77.057 72.5727 77.057 78.0768 69.1941 85.9398 25.1615 85.9398 25.1615 72.5727" stroke="#000000" stroke-width="0.786296" fill="#FFFFFF" transform="scale(1.0008 1)"/><text font-family="Verdana,Verdana_MSFontService,sans-serif" font-weight="700" font-size="13" transform="matrix(0.786928 0 0 0.786296 35.4118 84)">ref</text><text font-family="Verdana,Verdana_MSFontService,sans-serif" font-weight="400" font-size="12" transform="matrix(0.786928 0 0 0.786296 155.222 98)">Authenticate</text><path d="M299.579 120.721 307.442 123.866 299.579 127.011 302.724 123.866Z" stroke="#000000" stroke-width="0.786296" transform="scale(1.0008 1)"/><path d="M82.5611 123.866 304.297 123.866" stroke="#000000" stroke-width="0.786296" fill="none" transform="scale(1.0008 1)"/><text font-family="Verdana,Verdana_MSFontService,sans-serif" font-weight="700" font-size="13" transform="matrix(0.786928 0 0 0.786296 88.1359 120)">1</text><text font-family="Verdana,Verdana_MSFontService,sans-serif" font-weight="400" font-size="13" transform="matrix(0.786928 0 0 0.786296 98.366 120)">Asks for the patients list</text><path d="M461.556 143.628 469.419 146.773 461.556 149.918 464.701 146.773Z" stroke="#000000" stroke-width="0.786296" transform="scale(1.0008 1)"/><path d="M312.946 146.773 466.274 146.773" stroke="#000000" stroke-width="0.786296" fill="none" transform="scale(1.0008 1)"/><text font-family="Verdana,Verdana_MSFontService,sans-serif" font-weight="700" font-size="13" transform="matrix(0.786928 0 0 0.786296 318.706 143)">2</text><text font-family="Verdana,Verdana_MSFontService,sans-serif" font-weight="400" font-size="13" transform="matrix(0.786928 0 0 0.786296 328.936 143)">Send request</text><path d="M321.595 166.535 313.732 169.68 321.595 172.826 318.45 169.68Z" stroke="#000000" stroke-width="0.786296" transform="scale(1.0008 1)"/><path d="M316.877 169.68 474.137 169.68" stroke="#000000" stroke-width="0.786296" fill="none" transform="scale(1.0008 1)"/><text font-family="Verdana,Verdana_MSFontService,sans-serif" font-weight="700" font-size="13" transform="matrix(0.786928 0 0 0.786296 326.575 166)">3</text><text font-family="Verdana,Verdana_MSFontService,sans-serif" font-weight="400" font-size="13" transform="matrix(0.786928 0 0 0.786296 336.805 166)">Return the patients list</text><path d="M91.2104 189.442 83.3474 192.588 91.2104 195.733 88.0652 192.588Z" stroke="#000000" stroke-width="0.786296" transform="scale(1.0008 1)"/><path d="M86.4926 192.588 312.16 192.588" stroke="#000000" stroke-width="0.786296" fill="none" transform="scale(1.0008 1)"/><text font-family="Verdana,Verdana_MSFontService,sans-serif" font-weight="700" font-size="13" transform="matrix(0.786928 0 0 0.786296 96.0052 189)">4</text><text font-family="Verdana,Verdana_MSFontService,sans-serif" font-weight="400" font-size="13" transform="matrix(0.786928 0 0 0.786296 106.235 189)">Display the patient list</text><path d="M299.579 212.349 307.442 215.494 299.579 218.639 302.724 215.494Z" stroke="#000000" stroke-width="0.786296" transform="scale(1.0008 1)"/><path d="M82.5611 215.494 304.297 215.494" stroke="#000000" stroke-width="0.786296" fill="none" transform="scale(1.0008 1)"/><text font-family="Verdana,Verdana_MSFontService,sans-serif" font-weight="700" font-size="13" transform="matrix(0.786928 0 0 0.786296 88.1359 212)">5</text><text font-family="Verdana,Verdana_MSFontService,sans-serif" font-weight="400" font-size="13" transform="matrix(0.786928 0 0 0.786296 98.366 212)">Chooses a specific patient to be deleted</text><path d="M91.2104 235.256 83.3474 238.401 91.2104 241.546 88.0652 238.401Z" stroke="#000000" stroke-width="0.786296" transform="scale(1.0008 1)"/><path d="M86.4926 238.401 312.16 238.401" stroke="#000000" stroke-width="0.786296" fill="none" transform="scale(1.0008 1)"/><text font-family="Verdana,Verdana_MSFontService,sans-serif" font-weight="700" font-size="13" transform="matrix(0.786928 0 0 0.786296 96.0052 234)">6</text><text font-family="Verdana,Verdana_MSFontService,sans-serif" font-weight="400" font-size="13" transform="matrix(0.786928 0 0 0.786296 106.235 234)">Ask for confirmation</text><path d="M11.7944 250.196 62.1174 250.196 62.1174 255.804 54.2544 263.667 11.7944 263.667 11.7944 250.196" stroke="#000000" stroke-width="0.786296" fill="#FFFFFF" transform="scale(1.0008 1)"/><path d="M11.7944 250.196 596.013 250.196 596.013 551.402 11.7944 551.402Z" stroke="#000000" stroke-width="0.786296" fill="none" transform="scale(1.0008 1)"/><text font-family="Verdana,Verdana_MSFontService,sans-serif" font-weight="700" font-size="13" transform="matrix(0.786928 0 0 0.786296 23.6078 260)">alt</text><text font-family="Verdana,Verdana_MSFontService,sans-serif" font-weight="700" font-size="11" transform="matrix(0.786928 0 0 0.786296 73.9712 260)">[</text><text font-family="Verdana,Verdana_MSFontService,sans-serif" font-weight="700" font-size="11" transform="matrix(0.786928 0 0 0.786296 78.6755 260)">Deletion cancelled</text><text font-family="Verdana,Verdana_MSFontService,sans-serif" font-weight="700" font-size="11" transform="matrix(0.786928 0 0 0.786296 167.888 260)">]</text><path d="M299.579 277.139 307.442 280.284 299.579 283.429 302.724 280.284Z" stroke="#000000" stroke-width="0.786296" transform="scale(1.0008 1)"/><path d="M82.5611 280.284 304.297 280.284" stroke="#000000" stroke-width="0.786296" fill="none" transform="scale(1.0008 1)"/><text font-family="Verdana,Verdana_MSFontService,sans-serif" font-weight="700" font-size="13" transform="matrix(0.786928 0 0 0.786296 88.1359 276)">7</text><text font-family="Verdana,Verdana_MSFontService,sans-serif" font-weight="400" font-size="13" transform="matrix(0.786928 0 0 0.786296 98.366 276)">Cancel deletion</text><path d="M91.2104 300.046 83.3474 303.191 91.2104 306.336 88.0652 303.191Z" stroke="#000000" stroke-width="0.786296" transform="scale(1.0008 1)"/><path d="M86.4926 303.191 312.16 303.191" stroke="#000000" stroke-width="0.786296" fill="none" transform="scale(1.0008 1)"/><text font-family="Verdana,Verdana_MSFontService,sans-serif" font-weight="700" font-size="13" transform="matrix(0.786928 0 0 0.786296 96.0052 299)">8</text><text font-family="Verdana,Verdana_MSFontService,sans-serif" font-weight="400" font-size="13" transform="matrix(0.786928 0 0 0.786296 106.235 299)">Display the unchanged patient record</text><path d="M11.7944 310.268 596.013 310.268" stroke="#000000" stroke-width="0.786296" stroke-dasharray="1.57259 1.57259" fill="none" transform="scale(1.0008 1)"/><text font-family="Verdana,Verdana_MSFontService,sans-serif" font-weight="700" font-size="11" transform="matrix(0.786928 0 0 0.786296 15.7386 318)">[</text><text font-family="Verdana,Verdana_MSFontService,sans-serif" font-weight="700" font-size="11" transform="matrix(0.786928 0 0 0.786296 20.4428 318)">Deletion confirmed</text><text font-family="Verdana,Verdana_MSFontService,sans-serif" font-weight="700" font-size="11" transform="matrix(0.786928 0 0 0.786296 113.134 318)">]</text><path d="M299.579 334.593 307.442 337.739 299.579 340.884 302.724 337.739Z" stroke="#000000" stroke-width="0.786296" transform="scale(1.0008 1)"/><path d="M82.5611 337.739 304.297 337.739" stroke="#000000" stroke-width="0.786296" fill="none" transform="scale(1.0008 1)"/><text font-family="Verdana,Verdana_MSFontService,sans-serif" font-weight="700" font-size="13" transform="matrix(0.786928 0 0 0.786296 88.1359 334)">9</text><text font-family="Verdana,Verdana_MSFontService,sans-serif" font-weight="400" font-size="13" transform="matrix(0.786928 0 0 0.786296 98.366 334)">Confirm deletion</text><path d="M461.556 357.501 469.419 360.646 461.556 363.791 464.701 360.646Z" stroke="#000000" stroke-width="0.786296" transform="scale(1.0008 1)"/><path d="M312.946 360.646 466.274 360.646" stroke="#000000" stroke-width="0.786296" fill="none" transform="scale(1.0008 1)"/><text font-family="Verdana,Verdana_MSFontService,sans-serif" font-weight="700" font-size="13" transform="matrix(0.786928 0 0 0.786296 318.706 357)">10</text><text font-family="Verdana,Verdana_MSFontService,sans-serif" font-weight="400" font-size="13" transform="matrix(0.786928 0 0 0.786296 336.018 357)">Send request</text><path d="M482.786 383.553 515.81 383.553" stroke="#000000" stroke-width="0.786296" fill="none" transform="scale(1.0008 1)"/><path d="M515.81 383.553 515.81 393.775" stroke="#000000" stroke-width="0.786296" fill="none" transform="scale(1.0008 1)"/><path d="M483.572 393.775 515.81 393.775" stroke="#000000" stroke-width="0.786296" fill="none" transform="scale(1.0008 1)"/><path d="M491.435 390.63 483.572 393.775 491.435 396.92 488.29 393.775Z" stroke="#000000" stroke-width="0.786296" transform="scale(1.0008 1)"/><text font-family="Verdana,Verdana_MSFontService,sans-serif" font-weight="700" font-size="13" transform="matrix(0.786928 0 0 0.786296 488.682 380)">11</text><text font-family="Verdana,Verdana_MSFontService,sans-serif" font-weight="400" font-size="13" transform="matrix(0.786928 0 0 0.786296 505.995 380)">Process request</text><path d="M19.6574 429.158 69.9804 429.158 69.9804 434.767 62.1174 442.63 19.6574 442.63 19.6574 429.158" stroke="#000000" stroke-width="0.786296" fill="#FFFFFF" transform="scale(1.0008 1)"/><path d="M19.6574 429.158 522.101 429.158 522.101 545.899 19.6574 545.899Z" stroke="#000000" stroke-width="0.786296" fill="none" transform="scale(1.0008 1)"/><text font-family="Verdana,Verdana_MSFontService,sans-serif" font-weight="700" font-size="13" transform="matrix(0.786928 0 0 0.786296 31.4771 439)">alt</text><text font-family="Verdana,Verdana_MSFontService,sans-serif" font-weight="700" font-size="11" transform="matrix(0.786928 0 0 0.786296 81.8405 439)">[</text><text font-family="Verdana,Verdana_MSFontService,sans-serif" font-weight="700" font-size="11" transform="matrix(0.786928 0 0 0.786296 86.5448 439)">Deletion successfull</text><text font-family="Verdana,Verdana_MSFontService,sans-serif" font-weight="700" font-size="11" transform="matrix(0.786928 0 0 0.786296 183.403 439)">]</text><path d="M325.527 456.101 317.664 459.246 325.527 462.391 322.382 459.246Z" stroke="#000000" stroke-width="0.786296" transform="scale(1.0008 1)"/><path d="M320.809 459.246 474.137 459.246" stroke="#000000" stroke-width="0.786296" stroke-dasharray="1.57259 1.57259" fill="none" transform="scale(1.0008 1)"/><text font-family="Verdana,Verdana_MSFontService,sans-serif" font-weight="700" font-size="13" transform="matrix(0.786928 0 0 0.786296 330.51 455)">12</text><text font-family="Verdana,Verdana_MSFontService,sans-serif" font-weight="400" font-size="13" transform="matrix(0.786928 0 0 0.786296 347.822 455)">Return error message</text><path d="M91.2104 479.008 83.3474 482.153 91.2104 485.298 88.0652 482.153Z" stroke="#000000" stroke-width="0.786296" transform="scale(1.0008 1)"/><path d="M86.4926 482.153 312.16 482.153" stroke="#000000" stroke-width="0.786296" fill="none" transform="scale(1.0008 1)"/><text font-family="Verdana,Verdana_MSFontService,sans-serif" font-weight="700" font-size="13" transform="matrix(0.786928 0 0 0.786296 96.0052 478)">13</text><text font-family="Verdana,Verdana_MSFontService,sans-serif" font-weight="400" font-size="13" transform="matrix(0.786928 0 0 0.786296 113.318 478)">Display error message</text><path d="M19.6574 489.23 522.101 489.23" stroke="#000000" stroke-width="0.786296" stroke-dasharray="1.57259 1.57259" fill="none" transform="scale(1.0008 1)"/><text font-family="Verdana,Verdana_MSFontService,sans-serif" font-weight="700" font-size="11" transform="matrix(0.786928 0 0 0.786296 23.6078 497)">[</text><text font-family="Verdana,Verdana_MSFontService,sans-serif" font-weight="700" font-size="11" transform="matrix(0.786928 0 0 0.786296 28.3121 497)">Deletion was not successfull</text><text font-family="Verdana,Verdana_MSFontService,sans-serif" font-weight="700" font-size="11" transform="matrix(0.786928 0 0 0.786296 166.537 497)">]</text><path d="M325.527 513.556 317.664 516.701 325.527 519.846 322.382 516.701Z" stroke="#000000" stroke-width="0.786296" transform="scale(1.0008 1)"/><path d="M320.809 516.701 474.137 516.701" stroke="#000000" stroke-width="0.786296" stroke-dasharray="1.57259 1.57259" fill="none" transform="scale(1.0008 1)"/><text font-family="Verdana,Verdana_MSFontService,sans-serif" font-weight="700" font-size="13" transform="matrix(0.786928 0 0 0.786296 330.51 513)">14</text><text font-family="Verdana,Verdana_MSFontService,sans-serif" font-weight="400" font-size="13" transform="matrix(0.786928 0 0 0.786296 347.822 513)">Return success message</text><path d="M91.2104 536.463 83.3474 539.608 91.2104 542.754 88.0652 539.608Z" stroke="#000000" stroke-width="0.786296" transform="scale(1.0008 1)"/><path d="M86.4926 539.608 312.16 539.608" stroke="#000000" stroke-width="0.786296" fill="none" transform="scale(1.0008 1)"/><text font-family="Verdana,Verdana_MSFontService,sans-serif" font-weight="700" font-size="13" transform="matrix(0.786928 0 0 0.786296 96.0052 536)">15</text><text font-family="Verdana,Verdana_MSFontService,sans-serif" font-weight="400" font-size="13" transform="matrix(0.786928 0 0 0.786296 113.318 536)">Display success message</text></g></svg>