<svg width="602" height="328" xmlns="http://www.w3.org/2000/svg" xmlns:xlink="http://www.w3.org/1999/xlink" xml:space="preserve" overflow="hidden"><defs><clipPath id="clip0"><rect x="0" y="0" width="602" height="328"/></clipPath></defs><g clip-path="url(#clip0)"><path d="M171.62 216.59 178.246 216.59 178.246 235.894 171.62 235.894Z" stroke="#000000" stroke-width="0.662625" fill="#FFFFFF" transform="scale(1.00056 1)"/><path d="M171.62 302.996 178.246 302.996 178.246 322.3 171.62 322.3Z" stroke="#000000" stroke-width="0.662625" fill="#FFFFFF" transform="scale(1.00056 1)"/><path d="M331.313 104.384 337.939 104.384 337.939 147.543 331.313 147.543Z" stroke="#000000" stroke-width="0.662625" fill="#FFFFFF" transform="scale(1.00056 1)"/><path d="M334.626 128.989 341.252 128.989 341.252 147.543 334.626 147.543Z" stroke="#000000" stroke-width="0.662625" fill="#FFFFFF" transform="scale(1.00056 1)"/><path d="M491.005 235.895 497.632 235.895 497.632 279.053 491.005 279.053Z" stroke="#000000" stroke-width="0.662625" fill="#FFFFFF" transform="scale(1.00056 1)"/><path d="M494.318 260.5 500.945 260.5 500.945 279.053 494.318 279.053Z" stroke="#000000" stroke-width="0.662625" fill="#FFFFFF" transform="scale(1.00056 1)"/><path d="M9.93938 162.121 597.025 162.121 597.025 327.601 9.93938 327.601Z" stroke="#000000" stroke-width="0.662625" fill="#FFFFFF" transform="scale(1.00056 1)"/><path d="M9.93938 192.778 597.025 192.778 597.025 327.601 9.93938 327.601Z" fill="#FFFFFF" transform="scale(1.00056 1)"/><path d="M62.9494 54.532 62.9494 338.865" stroke="#000000" stroke-width="0.662625" stroke-dasharray="4.63838 4.63838" fill="none" transform="scale(1.00056 1)"/><path d="M174.602 54.532 174.602 338.865" stroke="#000000" stroke-width="0.662625" stroke-dasharray="4.63838 4.63838" fill="none" transform="scale(1.00056 1)"/><path d="M334.294 54.532 334.294 338.865" stroke="#000000" stroke-width="0.662625" stroke-dasharray="4.63838 4.63838" fill="none" transform="scale(1.00056 1)"/><path d="M494.318 54.532 494.318 338.865" stroke="#000000" stroke-width="0.662625" stroke-dasharray="4.63838 4.63838" fill="none" transform="scale(1.00056 1)"/><text font-family="Verdana,Verdana_MSFontService,sans-serif" font-weight="400" font-size="14" transform="matrix(0.662996 0 0 0.662625 16.5749 52)">Healthcare Provider</text><path d="M68.2504 9.27675C68.2504 12.2044 65.8771 14.5778 62.9494 14.5778 60.0217 14.5778 57.6484 12.2044 57.6484 9.27675 57.6484 6.34909 60.0217 3.97575 62.9494 3.97575 65.8771 3.97575 68.2504 6.34909 68.2504 9.27675Z" stroke="#000000" stroke-width="0.662625" fill="#FFFFFF" transform="scale(1.00056 1)"/><path d="M62.9494 14.5778 62.9494 32.4686M54.3353 19.8788 71.5635 19.8788M62.9494 32.4686 54.3353 42.408M62.9494 32.4686 71.5635 42.408" stroke="#000000" stroke-width="0.662625" fill="none" transform="scale(1.00056 1)"/><text font-family="Verdana,Verdana_MSFontService,sans-serif" font-weight="400" font-size="14" transform="matrix(0.662996 0 0 0.662625 16.5749 347)">Healthcare Provider</text><path d="M68.2504 354.965C68.2504 357.893 65.8771 360.266 62.9494 360.266 60.0217 360.266 57.6484 357.893 57.6484 354.965 57.6484 352.037 60.0217 349.664 62.9494 349.664 65.8771 349.664 68.2504 352.037 68.2504 354.965Z" stroke="#000000" stroke-width="0.662625" fill="#FFFFFF" transform="scale(1.00056 1)"/><path d="M62.9494 360.266 62.9494 378.157M54.3353 365.567 71.5635 365.567M62.9494 378.157 54.3353 388.096M62.9494 378.157 71.5635 388.096" stroke="#000000" stroke-width="0.662625" fill="none" transform="scale(1.00056 1)"/><path d="M194.812 33.7939C195.727 33.7939 196.468 34.5356 196.468 35.4504L196.468 52.2128C196.468 53.1277 195.727 53.8694 194.812 53.8694L155.054 53.8694C154.139 53.8694 153.398 53.1277 153.398 52.2128L153.398 35.4504C153.398 34.5356 154.139 33.7939 155.054 33.7939Z" stroke="#000000" stroke-width="0.662625" fill="#FFFFFF" transform="scale(1.00056 1)"/><text font-family="Verdana,Verdana_MSFontService,sans-serif" font-weight="400" font-size="14" transform="matrix(0.662996 0 0 0.662625 158.124 47)">System</text><path d="M194.812 338.203C195.727 338.203 196.468 338.944 196.468 339.859L196.468 356.621C196.468 357.536 195.727 358.278 194.812 358.278L155.054 358.278C154.139 358.278 153.398 357.536 153.398 356.621L153.398 339.859C153.398 338.944 154.139 338.203 155.054 338.203Z" stroke="#000000" stroke-width="0.662625" fill="#FFFFFF" transform="scale(1.00056 1)"/><text font-family="Verdana,Verdana_MSFontService,sans-serif" font-weight="400" font-size="14" transform="matrix(0.662996 0 0 0.662625 158.124 351)">System</text><path d="M382.997 33.7939C383.912 33.7939 384.654 34.5356 384.654 35.4504L384.654 52.2128C384.654 53.1277 383.912 53.8694 382.997 53.8694L286.254 53.8694C285.339 53.8694 284.598 53.1277 284.598 52.2128L284.598 35.4504C284.598 34.5356 285.339 33.7939 286.254 33.7939Z" stroke="#000000" stroke-width="0.662625" fill="#FFFFFF" transform="scale(1.00056 1)"/><text font-family="Verdana,Verdana_MSFontService,sans-serif" font-weight="400" font-size="14" transform="matrix(0.662996 0 0 0.662625 289.398 47)">Notification Channel</text><path d="M382.997 338.203C383.912 338.203 384.654 338.944 384.654 339.859L384.654 356.621C384.654 357.536 383.912 358.278 382.997 358.278L286.254 358.278C285.339 358.278 284.598 357.536 284.598 356.621L284.598 339.859C284.598 338.944 285.339 338.203 286.254 338.203Z" stroke="#000000" stroke-width="0.662625" fill="#FFFFFF" transform="scale(1.00056 1)"/><text font-family="Verdana,Verdana_MSFontService,sans-serif" font-weight="400" font-size="14" transform="matrix(0.662996 0 0 0.662625 289.398 351)">Notification Channel</text><path d="M519.167 33.7939C520.082 33.7939 520.823 34.5356 520.823 35.4504L520.823 52.2128C520.823 53.1277 520.082 53.8694 519.167 53.8694L469.47 53.8694C468.555 53.8694 467.813 53.1277 467.813 52.2128L467.813 35.4504C467.813 34.5356 468.555 33.7939 469.47 33.7939Z" stroke="#000000" stroke-width="0.662625" fill="#FFFFFF" transform="scale(1.00056 1)"/><text font-family="Verdana,Verdana_MSFontService,sans-serif" font-weight="400" font-size="14" transform="matrix(0.662996 0 0 0.662625 472.716 47)">Database</text><path d="M519.167 338.203C520.082 338.203 520.823 338.944 520.823 339.859L520.823 356.621C520.823 357.536 520.082 358.278 519.167 358.278L469.47 358.278C468.555 358.278 467.813 357.536 467.813 356.621L467.813 339.859C467.813 338.944 468.555 338.203 469.47 338.203Z" stroke="#000000" stroke-width="0.662625" fill="#FFFFFF" transform="scale(1.00056 1)"/><text font-family="Verdana,Verdana_MSFontService,sans-serif" font-weight="400" font-size="14" transform="matrix(0.662996 0 0 0.662625 472.716 351)">Database</text><path d="M171.62 216.59 178.246 216.59 178.246 235.894 171.62 235.894Z" stroke="#000000" stroke-width="0.662625" fill="#FFFFFF" transform="scale(1.00056 1)"/><path d="M171.62 302.996 178.246 302.996 178.246 322.3 171.62 322.3Z" stroke="#000000" stroke-width="0.662625" fill="#FFFFFF" transform="scale(1.00056 1)"/><path d="M331.313 104.384 337.939 104.384 337.939 147.543 331.313 147.543Z" stroke="#000000" stroke-width="0.662625" fill="#FFFFFF" transform="scale(1.00056 1)"/><path d="M334.626 128.989 341.252 128.989 341.252 147.543 334.626 147.543Z" stroke="#000000" stroke-width="0.662625" fill="#FFFFFF" transform="scale(1.00056 1)"/><path d="M491.005 235.895 497.632 235.895 497.632 279.053 491.005 279.053Z" stroke="#000000" stroke-width="0.662625" fill="#FFFFFF" transform="scale(1.00056 1)"/><path d="M494.318 260.5 500.945 260.5 500.945 279.053 494.318 279.053Z" stroke="#000000" stroke-width="0.662625" fill="#FFFFFF" transform="scale(1.00056 1)"/><path d="M14.5778 61.1582 205.083 61.1582 205.083 87.068 14.5778 87.068Z" stroke="#000000" stroke-width="0.662625" fill="#FFFFFF" transform="scale(1.00056 1)"/><path d="M14.5778 61.1582 58.311 61.1582 58.311 65.7966 51.6848 72.4229 14.5778 72.4229 14.5778 61.1582" stroke="#000000" stroke-width="0.662625" fill="#FFFFFF" transform="scale(1.00056 1)"/><text font-family="Verdana,Verdana_MSFontService,sans-serif" font-weight="700" font-size="13" transform="matrix(0.662996 0 0 0.662625 23.2048 70)">ref</text><text font-family="Verdana,Verdana_MSFontService,sans-serif" font-weight="400" font-size="12" transform="matrix(0.662996 0 0 0.662625 83.0402 82)">Authenticate</text><path d="M323.361 101.734 329.987 104.384 323.361 107.035 326.012 104.384Z" stroke="#000000" stroke-width="0.662625" transform="scale(1.00056 1)"/><path d="M174.933 104.384 327.337 104.384" stroke="#000000" stroke-width="0.662625" fill="none" transform="scale(1.00056 1)"/><text font-family="Verdana,Verdana_MSFontService,sans-serif" font-weight="700" font-size="13" transform="matrix(0.662996 0 0 0.662625 179.672 101)">1</text><text font-family="Verdana,Verdana_MSFontService,sans-serif" font-weight="400" font-size="13" transform="matrix(0.662996 0 0 0.662625 188.291 101)">Triggers the notification channel</text><path d="M341.252 123.688 369.082 123.688" stroke="#000000" stroke-width="0.662625" fill="none" transform="scale(1.00056 1)"/><path d="M369.082 123.688 369.082 132.302" stroke="#000000" stroke-width="0.662625" fill="none" transform="scale(1.00056 1)"/><path d="M341.915 132.302 369.082 132.302" stroke="#000000" stroke-width="0.662625" fill="none" transform="scale(1.00056 1)"/><path d="M348.541 129.652 341.915 132.302 348.541 134.953 345.89 132.302Z" stroke="#000000" stroke-width="0.662625" transform="scale(1.00056 1)"/><text font-family="Verdana,Verdana_MSFontService,sans-serif" font-weight="700" font-size="13" transform="matrix(0.662996 0 0 0.662625 346.084 120)">2</text><text font-family="Verdana,Verdana_MSFontService,sans-serif" font-weight="400" font-size="13" transform="matrix(0.662996 0 0 0.662625 354.703 120)">Checks for any new notifications</text><path d="M9.93938 162.121 52.3474 162.121 52.3474 166.847 45.7211 173.473 9.93938 173.473 9.93938 162.121" stroke="#000000" stroke-width="0.662625" fill="#FFFFFF" transform="scale(1.00056 1)"/><path d="M9.93938 162.121 597.025 162.121 597.025 327.601 9.93938 327.601Z" stroke="#000000" stroke-width="0.662625" fill="none" transform="scale(1.00056 1)"/><text font-family="Verdana,Verdana_MSFontService,sans-serif" font-weight="700" font-size="13" transform="matrix(0.662996 0 0 0.662625 19.8899 171)">alt</text><text font-family="Verdana,Verdana_MSFontService,sans-serif" font-weight="700" font-size="11" transform="matrix(0.662996 0 0 0.662625 62.3216 170)">[</text><text font-family="Verdana,Verdana_MSFontService,sans-serif" font-weight="700" font-size="11" transform="matrix(0.662996 0 0 0.662625 66.285 170)">Notification channel error</text><text font-family="Verdana,Verdana_MSFontService,sans-serif" font-weight="700" font-size="11" transform="matrix(0.662996 0 0 0.662625 171.83 170)">]</text><path d="M182.222 184.826 175.596 187.477 182.222 190.127 179.571 187.477Z" stroke="#000000" stroke-width="0.662625" transform="scale(1.00056 1)"/><path d="M178.246 187.477 333.963 187.477" stroke="#000000" stroke-width="0.662625" stroke-dasharray="1.32525 1.32525" fill="none" transform="scale(1.00056 1)"/><text font-family="Verdana,Verdana_MSFontService,sans-serif" font-weight="700" font-size="13" transform="matrix(0.662996 0 0 0.662625 186.302 184)">3</text><text font-family="Verdana,Verdana_MSFontService,sans-serif" font-weight="400" font-size="13" transform="matrix(0.662996 0 0 0.662625 194.921 184)">Returns error message</text><path d="M9.93938 193.44 597.025 193.44" stroke="#000000" stroke-width="0.662625" stroke-dasharray="1.32525 1.32525" fill="none" transform="scale(1.00056 1)"/><text font-family="Verdana,Verdana_MSFontService,sans-serif" font-weight="700" font-size="11" transform="matrix(0.662996 0 0 0.662625 13.2599 200)">[</text><text font-family="Verdana,Verdana_MSFontService,sans-serif" font-weight="700" font-size="11" transform="matrix(0.662996 0 0 0.662625 17.2233 200)">Notification channel success</text><text font-family="Verdana,Verdana_MSFontService,sans-serif" font-weight="700" font-size="11" transform="matrix(0.662996 0 0 0.662625 133.643 200)">]</text><path d="M185.535 213.94 178.909 216.59 185.535 219.241 182.885 216.59Z" stroke="#000000" stroke-width="0.662625" transform="scale(1.00056 1)"/><path d="M181.559 216.59 333.963 216.59" stroke="#000000" stroke-width="0.662625" fill="none" transform="scale(1.00056 1)"/><text font-family="Verdana,Verdana_MSFontService,sans-serif" font-weight="700" font-size="13" transform="matrix(0.662996 0 0 0.662625 189.617 213)">4</text><text font-family="Verdana,Verdana_MSFontService,sans-serif" font-weight="400" font-size="13" transform="matrix(0.662996 0 0 0.662625 198.236 213)">Returns notification</text><path d="M483.054 233.244 489.68 235.895 483.054 238.545 485.704 235.895Z" stroke="#000000" stroke-width="0.662625" transform="scale(1.00056 1)"/><path d="M174.933 235.895 487.03 235.895" stroke="#000000" stroke-width="0.662625" fill="none" transform="scale(1.00056 1)"/><text font-family="Verdana,Verdana_MSFontService,sans-serif" font-weight="700" font-size="13" transform="matrix(0.662996 0 0 0.662625 179.672 233)">5</text><text font-family="Verdana,Verdana_MSFontService,sans-serif" font-weight="400" font-size="13" transform="matrix(0.662996 0 0 0.662625 188.291 233)">Sends request</text><path d="M500.945 255.199 528.775 255.199" stroke="#000000" stroke-width="0.662625" fill="none" transform="scale(1.00056 1)"/><path d="M528.775 255.199 528.775 263.813" stroke="#000000" stroke-width="0.662625" fill="none" transform="scale(1.00056 1)"/><path d="M501.607 263.813 528.775 263.813" stroke="#000000" stroke-width="0.662625" fill="none" transform="scale(1.00056 1)"/><path d="M508.234 261.162 501.607 263.813 508.234 266.463 505.583 263.813Z" stroke="#000000" stroke-width="0.662625" transform="scale(1.00056 1)"/><text font-family="Verdana,Verdana_MSFontService,sans-serif" font-weight="700" font-size="13" transform="matrix(0.662996 0 0 0.662625 505.866 252)">6</text><text font-family="Verdana,Verdana_MSFontService,sans-serif" font-weight="400" font-size="13" transform="matrix(0.662996 0 0 0.662625 514.485 252)">Saves notification</text><path d="M185.535 300.345 178.909 302.996 185.535 305.646 182.885 302.996Z" stroke="#000000" stroke-width="0.662625" transform="scale(1.00056 1)"/><path d="M181.559 302.996 493.656 302.996" stroke="#000000" stroke-width="0.662625" stroke-dasharray="1.32525 1.32525" fill="none" transform="scale(1.00056 1)"/><text font-family="Verdana,Verdana_MSFontService,sans-serif" font-weight="700" font-size="13" transform="matrix(0.662996 0 0 0.662625 189.617 300)">7</text><text font-family="Verdana,Verdana_MSFontService,sans-serif" font-weight="400" font-size="13" transform="matrix(0.662996 0 0 0.662625 198.236 300)">Returns notification</text><path d="M70.2383 319.649 63.612 322.3 70.2383 324.95 67.5878 322.3Z" stroke="#000000" stroke-width="0.662625" transform="scale(1.00056 1)"/><path d="M66.2625 322.3 174.27 322.3" stroke="#000000" stroke-width="0.662625" fill="none" transform="scale(1.00056 1)"/><text font-family="Verdana,Verdana_MSFontService,sans-serif" font-weight="700" font-size="13" transform="matrix(0.662996 0 0 0.662625 74.2555 319)">8</text><text font-family="Verdana,Verdana_MSFontService,sans-serif" font-weight="400" font-size="13" transform="matrix(0.662996 0 0 0.662625 82.8745 319)">Displays notification</text></g></svg>