<svg width="602" height="523" xmlns="http://www.w3.org/2000/svg" xmlns:xlink="http://www.w3.org/1999/xlink" xml:space="preserve" overflow="hidden"><defs><clipPath id="clip0"><rect x="0" y="0" width="602" height="523"/></clipPath></defs><g clip-path="url(#clip0)"><path d="M226.866 103.29 233.423 103.29 233.423 138.215 226.866 138.215Z" stroke="#000000" stroke-width="0.655681" fill="#FFFFFF" transform="scale(1.00123 1)"/><path d="M226.866 157.318 233.423 157.318 233.423 200.024 226.866 200.024Z" stroke="#000000" stroke-width="0.655681" fill="#FFFFFF" transform="scale(1.00123 1)"/><path d="M230.144 181.664 236.701 181.664 236.701 200.023 230.144 200.023Z" stroke="#000000" stroke-width="0.655681" fill="#FFFFFF" transform="scale(1.00123 1)"/><path d="M226.866 310.527 233.423 310.527 233.423 329.629 226.866 329.629Z" stroke="#000000" stroke-width="0.655681" fill="#FFFFFF" transform="scale(1.00123 1)"/><path d="M226.866 488.57 233.423 488.57 233.423 507.672 226.866 507.672Z" stroke="#000000" stroke-width="0.655681" fill="#FFFFFF" transform="scale(1.00123 1)"/><path d="M356.035 228.305 362.592 228.305 362.592 271.011 356.035 271.011Z" stroke="#000000" stroke-width="0.655681" fill="#FFFFFF" transform="scale(1.00123 1)"/><path d="M359.313 252.652 365.87 252.652 365.87 271.011 359.313 271.011Z" stroke="#000000" stroke-width="0.655681" fill="#FFFFFF" transform="scale(1.00123 1)"/><path d="M455.699 377.539 462.255 377.539 462.255 420.246 455.699 420.246Z" stroke="#000000" stroke-width="0.655681" fill="#FFFFFF" transform="scale(1.00123 1)"/><path d="M458.977 401.887 465.534 401.887 465.534 420.246 458.977 420.246Z" stroke="#000000" stroke-width="0.655681" fill="#FFFFFF" transform="scale(1.00123 1)"/><path d="M16.392 113.125 337.02 113.125 337.02 209.859 16.392 209.859Z" stroke="#000000" stroke-width="0.655681" fill="#FFFFFF" transform="scale(1.00123 1)"/><path d="M9.83522 285.436 596.67 285.436 596.67 517.507 9.83522 517.507Z" stroke="#000000" stroke-width="0.655681" fill="#FFFFFF" transform="scale(1.00123 1)"/><path d="M9.83522 334.874 596.67 334.874 596.67 517.507 9.83522 517.507Z" fill="#FFFFFF" transform="scale(1.00123 1)"/><path d="M16.392 434.671 525.856 434.671 525.856 512.917 16.392 512.917Z" stroke="#000000" stroke-width="0.655681" fill="#FFFFFF" transform="scale(1.00123 1)"/><path d="M16.392 465.006 525.856 465.006 525.856 512.917 16.392 512.917Z" fill="#FFFFFF" transform="scale(1.00123 1)"/><path d="M68.8465 53.9605 68.8465 528.654" stroke="#000000" stroke-width="0.655681" stroke-dasharray="4.58977 4.58977" fill="none" transform="scale(1.00123 1)"/><path d="M229.816 53.9605 229.816 528.654" stroke="#000000" stroke-width="0.655681" stroke-dasharray="4.58977 4.58977" fill="none" transform="scale(1.00123 1)"/><path d="M359.313 53.9605 359.313 528.654" stroke="#000000" stroke-width="0.655681" stroke-dasharray="4.58977 4.58977" fill="none" transform="scale(1.00123 1)"/><path d="M458.977 53.9605 458.977 528.654" stroke="#000000" stroke-width="0.655681" stroke-dasharray="4.58977 4.58977" fill="none" transform="scale(1.00123 1)"/><text font-family="Verdana,Verdana_MSFontService,sans-serif" font-weight="400" font-size="14" transform="matrix(0.656489 0 0 0.655681 22.9771 52)">Healthcare Provider</text><path d="M74.092 9.17954C74.092 12.0765 71.7435 14.425 68.8465 14.425 65.9496 14.425 63.6011 12.0765 63.6011 9.17954 63.6011 6.28256 65.9496 3.93409 68.8465 3.93409 71.7435 3.93409 74.092 6.28256 74.092 9.17954Z" stroke="#000000" stroke-width="0.655681" fill="#FFFFFF" transform="scale(1.00123 1)"/><path d="M68.8465 14.425 68.8465 32.1284M60.3227 19.6704 77.3704 19.6704M68.8465 32.1284 60.3227 41.9636M68.8465 32.1284 77.3704 41.9636" stroke="#000000" stroke-width="0.655681" fill="none" transform="scale(1.00123 1)"/><text font-family="Verdana,Verdana_MSFontService,sans-serif" font-weight="400" font-size="14" transform="matrix(0.656489 0 0 0.655681 22.9771 537)">Healthcare Provider</text><path d="M74.092 544.584C74.092 547.481 71.7435 549.829 68.8465 549.829 65.9496 549.829 63.6011 547.481 63.6011 544.584 63.6011 541.687 65.9496 539.339 68.8465 539.339 71.7435 539.339 74.092 541.687 74.092 544.584Z" stroke="#000000" stroke-width="0.655681" fill="#FFFFFF" transform="scale(1.00123 1)"/><path d="M68.8465 549.829 68.8465 567.533M60.3227 555.075 77.3704 555.075M68.8465 567.533 60.3227 577.368M68.8465 567.533 77.3704 577.368" stroke="#000000" stroke-width="0.655681" fill="none" transform="scale(1.00123 1)"/><path d="M249.815 33.4397C250.72 33.4397 251.454 34.1736 251.454 35.0789L251.454 51.6657C251.454 52.571 250.72 53.3049 249.815 53.3049L210.474 53.3049C209.568 53.3049 208.835 52.571 208.835 51.6657L208.835 35.0789C208.835 34.1736 209.568 33.4397 210.474 33.4397Z" stroke="#000000" stroke-width="0.655681" fill="#FFFFFF" transform="scale(1.00123 1)"/><text font-family="Verdana,Verdana_MSFontService,sans-serif" font-weight="400" font-size="14" transform="matrix(0.656489 0 0 0.655681 213.687 47)">System</text><path d="M249.815 527.998C250.72 527.998 251.454 528.732 251.454 529.637L251.454 546.224C251.454 547.129 250.72 547.863 249.815 547.863L210.474 547.863C209.568 547.863 208.835 547.129 208.835 546.224L208.835 529.637C208.835 528.732 209.568 527.998 210.474 527.998Z" stroke="#000000" stroke-width="0.655681" fill="#FFFFFF" transform="scale(1.00123 1)"/><text font-family="Verdana,Verdana_MSFontService,sans-serif" font-weight="400" font-size="14" transform="matrix(0.656489 0 0 0.655681 213.687 541)">System</text><path d="M383.901 33.4397C384.807 33.4397 385.541 34.1736 385.541 35.0789L385.541 51.6657C385.541 52.571 384.807 53.3049 383.901 53.3049L334.725 53.3049C333.82 53.3049 333.086 52.571 333.086 51.6657L333.086 35.0789C333.086 34.1736 333.82 33.4397 334.725 33.4397Z" stroke="#000000" stroke-width="0.655681" fill="#FFFFFF" transform="scale(1.00123 1)"/><text font-family="Verdana,Verdana_MSFontService,sans-serif" font-weight="400" font-size="14" transform="matrix(0.656489 0 0 0.655681 338.092 47)">Database</text><path d="M383.901 527.998C384.807 527.998 385.541 528.732 385.541 529.637L385.541 546.224C385.541 547.129 384.807 547.863 383.901 547.863L334.725 547.863C333.82 547.863 333.086 547.129 333.086 546.224L333.086 529.637C333.086 528.732 333.82 527.998 334.725 527.998Z" stroke="#000000" stroke-width="0.655681" fill="#FFFFFF" transform="scale(1.00123 1)"/><text font-family="Verdana,Verdana_MSFontService,sans-serif" font-weight="400" font-size="14" transform="matrix(0.656489 0 0 0.655681 338.092 541)">Database</text><path d="M511.104 33.4397C512.009 33.4397 512.743 34.1736 512.743 35.0789L512.743 51.6657C512.743 52.571 512.009 53.3049 511.104 53.3049L406.85 53.3049C405.945 53.3049 405.211 52.571 405.211 51.6657L405.211 35.0789C405.211 34.1736 405.945 33.4397 406.85 33.4397Z" stroke="#000000" stroke-width="0.655681" fill="#FFFFFF" transform="scale(1.00123 1)"/><text font-family="Verdana,Verdana_MSFontService,sans-serif" font-weight="400" font-size="14" transform="matrix(0.656489 0 0 0.655681 410.305 47)">Real</text><text font-family="Verdana,Verdana_MSFontService,sans-serif" font-weight="400" font-size="14" transform="matrix(0.656489 0 0 0.655681 429.988 47)">-</text><text font-family="Verdana,Verdana_MSFontService,sans-serif" font-weight="400" font-size="14" transform="matrix(0.656489 0 0 0.655681 434.162 47)">time API Provider</text><path d="M511.104 527.998C512.009 527.998 512.743 528.732 512.743 529.637L512.743 546.224C512.743 547.129 512.009 547.863 511.104 547.863L406.85 547.863C405.945 547.863 405.211 547.129 405.211 546.224L405.211 529.637C405.211 528.732 405.945 527.998 406.85 527.998Z" stroke="#000000" stroke-width="0.655681" fill="#FFFFFF" transform="scale(1.00123 1)"/><text font-family="Verdana,Verdana_MSFontService,sans-serif" font-weight="400" font-size="14" transform="matrix(0.656489 0 0 0.655681 410.305 541)">Real</text><text font-family="Verdana,Verdana_MSFontService,sans-serif" font-weight="400" font-size="14" transform="matrix(0.656489 0 0 0.655681 429.988 541)">-</text><text font-family="Verdana,Verdana_MSFontService,sans-serif" font-weight="400" font-size="14" transform="matrix(0.656489 0 0 0.655681 434.162 541)">time API Provider</text><path d="M226.866 103.29 233.423 103.29 233.423 138.215 226.866 138.215Z" stroke="#000000" stroke-width="0.655681" fill="#FFFFFF" transform="scale(1.00123 1)"/><path d="M226.866 157.318 233.423 157.318 233.423 200.024 226.866 200.024Z" stroke="#000000" stroke-width="0.655681" fill="#FFFFFF" transform="scale(1.00123 1)"/><path d="M230.144 181.664 236.701 181.664 236.701 200.023 230.144 200.023Z" stroke="#000000" stroke-width="0.655681" fill="#FFFFFF" transform="scale(1.00123 1)"/><path d="M226.866 310.527 233.423 310.527 233.423 329.629 226.866 329.629Z" stroke="#000000" stroke-width="0.655681" fill="#FFFFFF" transform="scale(1.00123 1)"/><path d="M226.866 488.57 233.423 488.57 233.423 507.672 226.866 507.672Z" stroke="#000000" stroke-width="0.655681" fill="#FFFFFF" transform="scale(1.00123 1)"/><path d="M356.035 228.305 362.592 228.305 362.592 271.011 356.035 271.011Z" stroke="#000000" stroke-width="0.655681" fill="#FFFFFF" transform="scale(1.00123 1)"/><path d="M359.313 252.652 365.87 252.652 365.87 271.011 359.313 271.011Z" stroke="#000000" stroke-width="0.655681" fill="#FFFFFF" transform="scale(1.00123 1)"/><path d="M455.699 377.539 462.255 377.539 462.255 420.246 455.699 420.246Z" stroke="#000000" stroke-width="0.655681" fill="#FFFFFF" transform="scale(1.00123 1)"/><path d="M458.977 401.887 465.534 401.887 465.534 420.246 458.977 420.246Z" stroke="#000000" stroke-width="0.655681" fill="#FFFFFF" transform="scale(1.00123 1)"/><path d="M20.9818 60.5173 259.978 60.5173 259.978 86.1555 20.9818 86.1555Z" stroke="#000000" stroke-width="0.655681" fill="#FFFFFF" transform="scale(1.00123 1)"/><path d="M20.9818 60.5173 64.2568 60.5173 64.2568 65.1071 57.7 71.664 20.9818 71.664 20.9818 60.5173" stroke="#000000" stroke-width="0.655681" fill="#FFFFFF" transform="scale(1.00123 1)"/><text font-family="Verdana,Verdana_MSFontService,sans-serif" font-weight="700" font-size="13" transform="matrix(0.656489 0 0 0.655681 29.542 70)">ref</text><text font-family="Verdana,Verdana_MSFontService,sans-serif" font-weight="400" font-size="12" transform="matrix(0.656489 0 0 0.655681 114.065 82)">Authenticate</text><path d="M218.998 100.667 225.554 103.29 218.998 105.913 221.62 103.29Z" stroke="#000000" stroke-width="0.655681" transform="scale(1.00123 1)"/><path d="M68.8465 103.29 222.932 103.29" stroke="#000000" stroke-width="0.655681" fill="none" transform="scale(1.00123 1)"/><text font-family="Verdana,Verdana_MSFontService,sans-serif" font-weight="700" font-size="13" transform="matrix(0.656489 0 0 0.655681 73.5267 100)">1</text><text font-family="Verdana,Verdana_MSFontService,sans-serif" font-weight="400" font-size="13" transform="matrix(0.656489 0 0 0.655681 82.0611 100)">Asks for the conversation page</text><path d="M16.392 113.125 66.8795 113.125 66.8795 117.802 60.3227 124.359 16.392 124.359 16.392 113.125" stroke="#000000" stroke-width="0.655681" fill="#FFFFFF" transform="scale(1.00123 1)"/><path d="M16.392 113.125 337.02 113.125 337.02 209.859 16.392 209.859Z" stroke="#000000" stroke-width="0.655681" fill="none" transform="scale(1.00123 1)"/><text font-family="Verdana,Verdana_MSFontService,sans-serif" font-weight="700" font-size="13" transform="matrix(0.656489 0 0 0.655681 26.2595 122)">loop</text><text font-family="Verdana,Verdana_MSFontService,sans-serif" font-weight="700" font-size="11" transform="matrix(0.656489 0 0 0.655681 76.8092 121)">[</text><text font-family="Verdana,Verdana_MSFontService,sans-serif" font-weight="700" font-size="11" transform="matrix(0.656489 0 0 0.655681 80.7337 121)">Form inputs are incorrects</text><text font-family="Verdana,Verdana_MSFontService,sans-serif" font-weight="700" font-size="11" transform="matrix(0.656489 0 0 0.655681 188.229 121)">]</text><path d="M76.059 135.593 69.5022 138.216 76.059 140.838 73.4363 138.216Z" stroke="#000000" stroke-width="0.655681" transform="scale(1.00123 1)"/><path d="M72.1249 138.216 229.488 138.216" stroke="#000000" stroke-width="0.655681" stroke-dasharray="1.31136 1.31136" fill="none" transform="scale(1.00123 1)"/><text font-family="Verdana,Verdana_MSFontService,sans-serif" font-weight="700" font-size="13" transform="matrix(0.656489 0 0 0.655681 80.0916 135)">2</text><text font-family="Verdana,Verdana_MSFontService,sans-serif" font-weight="400" font-size="13" transform="matrix(0.656489 0 0 0.655681 88.626 135)">Return the conversation page</text><path d="M218.998 154.695 225.554 157.318 218.998 159.94 221.62 157.318Z" stroke="#000000" stroke-width="0.655681" transform="scale(1.00123 1)"/><path d="M68.8465 157.318 222.932 157.318" stroke="#000000" stroke-width="0.655681" fill="none" transform="scale(1.00123 1)"/><text font-family="Verdana,Verdana_MSFontService,sans-serif" font-weight="700" font-size="13" transform="matrix(0.656489 0 0 0.655681 73.5267 154)">3</text><text font-family="Verdana,Verdana_MSFontService,sans-serif" font-weight="400" font-size="13" transform="matrix(0.656489 0 0 0.655681 82.0611 154)">Fill in the message input</text><path d="M236.701 176.419 264.24 176.419" stroke="#000000" stroke-width="0.655681" fill="none" transform="scale(1.00123 1)"/><path d="M264.24 176.419 264.24 184.943" stroke="#000000" stroke-width="0.655681" fill="none" transform="scale(1.00123 1)"/><path d="M237.357 184.943 264.24 184.943" stroke="#000000" stroke-width="0.655681" fill="none" transform="scale(1.00123 1)"/><path d="M243.913 182.32 237.357 184.943 243.913 187.566 241.291 184.943Z" stroke="#000000" stroke-width="0.655681" transform="scale(1.00123 1)"/><text font-family="Verdana,Verdana_MSFontService,sans-serif" font-weight="700" font-size="13" transform="matrix(0.656489 0 0 0.655681 241.588 173)">4</text><text font-family="Verdana,Verdana_MSFontService,sans-serif" font-weight="400" font-size="13" transform="matrix(0.656489 0 0 0.655681 250.122 173)">Validate the form</text><path d="M348.167 225.682 354.724 228.305 348.167 230.928 350.789 228.305Z" stroke="#000000" stroke-width="0.655681" transform="scale(1.00123 1)"/><path d="M230.144 228.305 352.101 228.305" stroke="#000000" stroke-width="0.655681" fill="none" transform="scale(1.00123 1)"/><text font-family="Verdana,Verdana_MSFontService,sans-serif" font-weight="700" font-size="13" transform="matrix(0.656489 0 0 0.655681 235.023 225)">5</text><text font-family="Verdana,Verdana_MSFontService,sans-serif" font-weight="400" font-size="13" transform="matrix(0.656489 0 0 0.655681 243.557 225)">Send request</text><path d="M365.87 247.407 393.409 247.407" stroke="#000000" stroke-width="0.655681" fill="none" transform="scale(1.00123 1)"/><path d="M393.409 247.407 393.409 255.931" stroke="#000000" stroke-width="0.655681" fill="none" transform="scale(1.00123 1)"/><path d="M366.526 255.931 393.409 255.931" stroke="#000000" stroke-width="0.655681" fill="none" transform="scale(1.00123 1)"/><path d="M373.083 253.308 366.526 255.931 373.083 258.553 370.46 255.931Z" stroke="#000000" stroke-width="0.655681" transform="scale(1.00123 1)"/><text font-family="Verdana,Verdana_MSFontService,sans-serif" font-weight="700" font-size="13" transform="matrix(0.656489 0 0 0.655681 370.916 244)">6</text><text font-family="Verdana,Verdana_MSFontService,sans-serif" font-weight="400" font-size="13" transform="matrix(0.656489 0 0 0.655681 379.45 244)">Process request</text><path d="M9.83522 285.436 51.7988 285.436 51.7988 290.113 45.242 296.67 9.83522 296.67 9.83522 285.436" stroke="#000000" stroke-width="0.655681" fill="#FFFFFF" transform="scale(1.00123 1)"/><path d="M9.83522 285.436 596.67 285.436 596.67 517.507 9.83522 517.507Z" stroke="#000000" stroke-width="0.655681" fill="none" transform="scale(1.00123 1)"/><text font-family="Verdana,Verdana_MSFontService,sans-serif" font-weight="700" font-size="13" transform="matrix(0.656489 0 0 0.655681 19.6947 294)">alt</text><text font-family="Verdana,Verdana_MSFontService,sans-serif" font-weight="700" font-size="11" transform="matrix(0.656489 0 0 0.655681 61.7099 293)">[</text><text font-family="Verdana,Verdana_MSFontService,sans-serif" font-weight="700" font-size="11" transform="matrix(0.656489 0 0 0.655681 65.6344 293)">Database error</text><text font-family="Verdana,Verdana_MSFontService,sans-serif" font-weight="700" font-size="11" transform="matrix(0.656489 0 0 0.655681 126.508 293)">]</text><path d="M240.635 307.904 234.078 310.527 240.635 313.149 238.012 310.527Z" stroke="#000000" stroke-width="0.655681" transform="scale(1.00123 1)"/><path d="M236.701 310.527 358.658 310.527" stroke="#000000" stroke-width="0.655681" fill="none" transform="scale(1.00123 1)"/><text font-family="Verdana,Verdana_MSFontService,sans-serif" font-weight="700" font-size="13" transform="matrix(0.656489 0 0 0.655681 244.87 307)">7</text><text font-family="Verdana,Verdana_MSFontService,sans-serif" font-weight="400" font-size="13" transform="matrix(0.656489 0 0 0.655681 253.405 307)">Return error message</text><path d="M76.059 327.006 69.5022 329.629 76.059 332.251 73.4363 329.629Z" stroke="#000000" stroke-width="0.655681" transform="scale(1.00123 1)"/><path d="M72.1249 329.629 229.488 329.629" stroke="#000000" stroke-width="0.655681" fill="none" transform="scale(1.00123 1)"/><text font-family="Verdana,Verdana_MSFontService,sans-serif" font-weight="700" font-size="13" transform="matrix(0.656489 0 0 0.655681 80.0916 326)">8</text><text font-family="Verdana,Verdana_MSFontService,sans-serif" font-weight="400" font-size="13" transform="matrix(0.656489 0 0 0.655681 88.626 326)">Display error message</text><path d="M9.83522 335.53 596.67 335.53" stroke="#000000" stroke-width="0.655681" stroke-dasharray="1.31136 1.31136" fill="none" transform="scale(1.00123 1)"/><text font-family="Verdana,Verdana_MSFontService,sans-serif" font-weight="700" font-size="11" transform="matrix(0.656489 0 0 0.655681 13.1298 342)">[</text><text font-family="Verdana,Verdana_MSFontService,sans-serif" font-weight="700" font-size="11" transform="matrix(0.656489 0 0 0.655681 17.0543 342)">Database success</text><text font-family="Verdana,Verdana_MSFontService,sans-serif" font-weight="700" font-size="11" transform="matrix(0.656489 0 0 0.655681 88.6968 342)">]</text><path d="M237.357 355.815 230.8 358.437 237.357 361.06 234.734 358.437Z" stroke="#000000" stroke-width="0.655681" transform="scale(1.00123 1)"/><path d="M233.423 358.437 358.658 358.437" stroke="#000000" stroke-width="0.655681" fill="none" transform="scale(1.00123 1)"/><text font-family="Verdana,Verdana_MSFontService,sans-serif" font-weight="700" font-size="13" transform="matrix(0.656489 0 0 0.655681 241.588 355)">9</text><text font-family="Verdana,Verdana_MSFontService,sans-serif" font-weight="400" font-size="13" transform="matrix(0.656489 0 0 0.655681 250.122 355)">Return success message</text><path d="M447.83 374.917 454.387 377.539 447.83 380.162 450.453 377.539Z" stroke="#000000" stroke-width="0.655681" transform="scale(1.00123 1)"/><path d="M230.144 377.539 451.764 377.539" stroke="#000000" stroke-width="0.655681" fill="none" transform="scale(1.00123 1)"/><text font-family="Verdana,Verdana_MSFontService,sans-serif" font-weight="700" font-size="13" transform="matrix(0.656489 0 0 0.655681 235.023 374)">10</text><text font-family="Verdana,Verdana_MSFontService,sans-serif" font-weight="400" font-size="13" transform="matrix(0.656489 0 0 0.655681 249.466 374)">Trigger the real</text><text font-family="Verdana,Verdana_MSFontService,sans-serif" font-weight="400" font-size="13" transform="matrix(0.656489 0 0 0.655681 315.278 374)">-</text><text font-family="Verdana,Verdana_MSFontService,sans-serif" font-weight="400" font-size="13" transform="matrix(0.656489 0 0 0.655681 319.153 374)">time channel</text><path d="M465.534 396.641 493.072 396.641" stroke="#000000" stroke-width="0.655681" fill="none" transform="scale(1.00123 1)"/><path d="M493.072 396.641 493.072 405.165" stroke="#000000" stroke-width="0.655681" fill="none" transform="scale(1.00123 1)"/><path d="M466.189 405.165 493.072 405.165" stroke="#000000" stroke-width="0.655681" fill="none" transform="scale(1.00123 1)"/><path d="M472.746 402.542 466.189 405.165 472.746 407.788 470.124 405.165Z" stroke="#000000" stroke-width="0.655681" transform="scale(1.00123 1)"/><text font-family="Verdana,Verdana_MSFontService,sans-serif" font-weight="700" font-size="13" transform="matrix(0.656489 0 0 0.655681 470.702 393)">11</text><text font-family="Verdana,Verdana_MSFontService,sans-serif" font-weight="400" font-size="13" transform="matrix(0.656489 0 0 0.655681 485.145 393)">Process trigger request</text><path d="M16.392 434.671 58.3556 434.671 58.3556 439.347 51.7988 445.904 16.392 445.904 16.392 434.671" stroke="#000000" stroke-width="0.655681" fill="#FFFFFF" transform="scale(1.00123 1)"/><path d="M16.392 434.671 525.856 434.671 525.856 512.917 16.392 512.917Z" stroke="#000000" stroke-width="0.655681" fill="none" transform="scale(1.00123 1)"/><text font-family="Verdana,Verdana_MSFontService,sans-serif" font-weight="700" font-size="13" transform="matrix(0.656489 0 0 0.655681 26.2595 443)">alt</text><text font-family="Verdana,Verdana_MSFontService,sans-serif" font-weight="700" font-size="11" transform="matrix(0.656489 0 0 0.655681 68.2748 443)">[</text><text font-family="Verdana,Verdana_MSFontService,sans-serif" font-weight="700" font-size="11" transform="matrix(0.656489 0 0 0.655681 72.1993 443)">Real</text><text font-family="Verdana,Verdana_MSFontService,sans-serif" font-weight="700" font-size="11" transform="matrix(0.656489 0 0 0.655681 89.9354 443)">-</text><text font-family="Verdana,Verdana_MSFontService,sans-serif" font-weight="700" font-size="11" transform="matrix(0.656489 0 0 0.655681 93.4015 443)">time API Provider error</text><text font-family="Verdana,Verdana_MSFontService,sans-serif" font-weight="700" font-size="11" transform="matrix(0.656489 0 0 0.655681 188.799 443)">]</text><path d="M237.357 457.138 230.8 459.76 237.357 462.383 234.734 459.76Z" stroke="#000000" stroke-width="0.655681" transform="scale(1.00123 1)"/><path d="M233.423 459.76 458.321 459.76" stroke="#000000" stroke-width="0.655681" fill="none" transform="scale(1.00123 1)"/><text font-family="Verdana,Verdana_MSFontService,sans-serif" font-weight="700" font-size="13" transform="matrix(0.656489 0 0 0.655681 241.588 456)">12</text><text font-family="Verdana,Verdana_MSFontService,sans-serif" font-weight="400" font-size="13" transform="matrix(0.656489 0 0 0.655681 256.031 456)">Return error message</text><path d="M16.392 465.662 525.856 465.662" stroke="#000000" stroke-width="0.655681" stroke-dasharray="1.31136 1.31136" fill="none" transform="scale(1.00123 1)"/><text font-family="Verdana,Verdana_MSFontService,sans-serif" font-weight="700" font-size="11" transform="matrix(0.656489 0 0 0.655681 19.6947 472)">[</text><text font-family="Verdana,Verdana_MSFontService,sans-serif" font-weight="700" font-size="11" transform="matrix(0.656489 0 0 0.655681 23.6192 472)">Real</text><text font-family="Verdana,Verdana_MSFontService,sans-serif" font-weight="700" font-size="11" transform="matrix(0.656489 0 0 0.655681 41.3553 472)">-</text><text font-family="Verdana,Verdana_MSFontService,sans-serif" font-weight="700" font-size="11" transform="matrix(0.656489 0 0 0.655681 44.8214 472)">time API Provider success</text><text font-family="Verdana,Verdana_MSFontService,sans-serif" font-weight="700" font-size="11" transform="matrix(0.656489 0 0 0.655681 150.988 472)">]</text><path d="M240.635 485.947 234.078 488.57 240.635 491.193 238.012 488.57Z" stroke="#000000" stroke-width="0.655681" transform="scale(1.00123 1)"/><path d="M236.701 488.57 458.321 488.57" stroke="#000000" stroke-width="0.655681" fill="none" transform="scale(1.00123 1)"/><text font-family="Verdana,Verdana_MSFontService,sans-serif" font-weight="700" font-size="13" transform="matrix(0.656489 0 0 0.655681 244.87 485)">13</text><text font-family="Verdana,Verdana_MSFontService,sans-serif" font-weight="400" font-size="13" transform="matrix(0.656489 0 0 0.655681 259.313 485)">Return the new message</text><path d="M76.059 505.049 69.5022 507.672 76.059 510.294 73.4363 507.672Z" stroke="#000000" stroke-width="0.655681" transform="scale(1.00123 1)"/><path d="M72.1249 507.672 229.488 507.672" stroke="#000000" stroke-width="0.655681" fill="none" transform="scale(1.00123 1)"/><text font-family="Verdana,Verdana_MSFontService,sans-serif" font-weight="700" font-size="13" transform="matrix(0.656489 0 0 0.655681 80.0916 504)">14</text><text font-family="Verdana,Verdana_MSFontService,sans-serif" font-weight="400" font-size="13" transform="matrix(0.656489 0 0 0.655681 94.5343 504)">Display the new message sent</text></g></svg>