<svg width="602" height="633" xmlns="http://www.w3.org/2000/svg" xmlns:xlink="http://www.w3.org/1999/xlink" xml:space="preserve" overflow="hidden"><defs><clipPath id="clip0"><rect x="0" y="0" width="602" height="633"/></clipPath></defs><g clip-path="url(#clip0)"><path d="M240.61 113.145 247.792 113.145 247.792 134.069 240.61 134.069Z" stroke="#000000" stroke-width="0.718238" fill="#FFFFFF" transform="scale(1.00139 1)"/><path d="M240.61 154.994 247.792 154.994 247.792 193.251 240.61 193.251Z" stroke="#000000" stroke-width="0.718238" fill="#FFFFFF" transform="scale(1.00139 1)"/><path d="M240.61 214.175 247.792 214.175 247.792 260.956 240.61 260.956Z" stroke="#000000" stroke-width="0.718238" fill="#FFFFFF" transform="scale(1.00139 1)"/><path d="M244.201 240.845 251.383 240.845 251.383 260.956 244.201 260.956Z" stroke="#000000" stroke-width="0.718238" fill="#FFFFFF" transform="scale(1.00139 1)"/><path d="M240.61 382.001 247.792 382.001 247.792 402.925 240.61 402.925Z" stroke="#000000" stroke-width="0.718238" fill="#FFFFFF" transform="scale(1.00139 1)"/><path d="M240.61 434.483 247.792 434.483 247.792 455.408 240.61 455.408Z" stroke="#000000" stroke-width="0.718238" fill="#FFFFFF" transform="scale(1.00139 1)"/><path d="M240.61 545.473 247.792 545.473 247.792 566.398 240.61 566.398Z" stroke="#000000" stroke-width="0.718238" fill="#FFFFFF" transform="scale(1.00139 1)"/><path d="M240.61 597.955 247.792 597.955 247.792 618.879 240.61 618.879Z" stroke="#000000" stroke-width="0.718238" fill="#FFFFFF" transform="scale(1.00139 1)"/><path d="M397.185 455.407 404.368 455.407 404.368 502.188 397.185 502.188Z" stroke="#000000" stroke-width="0.718238" fill="#FFFFFF" transform="scale(1.00139 1)"/><path d="M400.777 482.078 407.959 482.078 407.959 502.188 400.777 502.188Z" stroke="#000000" stroke-width="0.718238" fill="#FFFFFF" transform="scale(1.00139 1)"/><path d="M497.02 291.936 504.203 291.936 504.203 338.716 497.02 338.716Z" stroke="#000000" stroke-width="0.718238" fill="#FFFFFF" transform="scale(1.00139 1)"/><path d="M500.612 318.606 507.794 318.606 507.794 338.717 500.612 338.717Z" stroke="#000000" stroke-width="0.718238" fill="#FFFFFF" transform="scale(1.00139 1)"/><path d="M17.9559 165.767 361.274 165.767 361.274 271.729 17.9559 271.729Z" stroke="#000000" stroke-width="0.718238" fill="#FFFFFF" transform="scale(1.00139 1)"/><path d="M10.7736 354.518 555.916 354.518 555.916 629.653 10.7736 629.653Z" stroke="#000000" stroke-width="0.718238" fill="#FFFFFF" transform="scale(1.00139 1)"/><path d="M10.7736 408.671 555.916 408.671 555.916 629.653 10.7736 629.653Z" fill="#FFFFFF" transform="scale(1.00139 1)"/><path d="M17.9559 517.989 443.871 517.989 443.871 624.625 17.9559 624.625Z" stroke="#000000" stroke-width="0.718238" fill="#FFFFFF" transform="scale(1.00139 1)"/><path d="M17.9559 572.144 443.871 572.144 443.871 624.626 17.9559 624.626Z" fill="#FFFFFF" transform="scale(1.00139 1)"/><path d="M44.5307 59.1087 44.5307 641.863" stroke="#000000" stroke-width="0.718238" stroke-dasharray="5.02766 5.02766" fill="none" transform="scale(1.00139 1)"/><path d="M243.842 59.1087 243.842 641.863" stroke="#000000" stroke-width="0.718238" stroke-dasharray="5.02766 5.02766" fill="none" transform="scale(1.00139 1)"/><path d="M400.777 59.1087 400.777 641.863" stroke="#000000" stroke-width="0.718238" stroke-dasharray="5.02766 5.02766" fill="none" transform="scale(1.00139 1)"/><path d="M500.612 59.1087 500.612 641.863" stroke="#000000" stroke-width="0.718238" stroke-dasharray="5.02766 5.02766" fill="none" transform="scale(1.00139 1)"/><text font-family="Verdana,Verdana_MSFontService,sans-serif" font-weight="400" font-size="14" transform="matrix(0.719235 0 0 0.718238 25.1732 57)">Patient</text><path d="M50.2766 10.0553C50.2766 13.2287 47.7041 15.8012 44.5307 15.8012 41.3574 15.8012 38.7848 13.2287 38.7848 10.0553 38.7848 6.88195 41.3574 4.30943 44.5307 4.30943 47.7041 4.30943 50.2766 6.88195 50.2766 10.0553Z" stroke="#000000" stroke-width="0.718238" fill="#FFFFFF" transform="scale(1.00139 1)"/><path d="M44.5307 15.8012 44.5307 35.1936M35.1936 21.5471 53.8678 21.5471M44.5307 35.1936 35.1936 45.9672M44.5307 35.1936 53.8678 45.9672" stroke="#000000" stroke-width="0.718238" fill="none" transform="scale(1.00139 1)"/><text font-family="Verdana,Verdana_MSFontService,sans-serif" font-weight="400" font-size="14" transform="matrix(0.719235 0 0 0.718238 25.1732 650)">Patient</text><path d="M50.2766 659.314C50.2766 662.487 47.7041 665.06 44.5307 665.06 41.3574 665.06 38.7848 662.487 38.7848 659.314 38.7848 656.141 41.3574 653.568 44.5307 653.568 47.7041 653.568 50.2766 656.141 50.2766 659.314Z" stroke="#000000" stroke-width="0.718238" fill="#FFFFFF" transform="scale(1.00139 1)"/><path d="M44.5307 665.06 44.5307 684.452M35.1936 670.806 53.8678 670.806M44.5307 684.452 35.1936 695.226M44.5307 684.452 53.8678 695.226" stroke="#000000" stroke-width="0.718238" fill="none" transform="scale(1.00139 1)"/><path d="M265.748 36.6301C266.74 36.6301 267.544 37.434 267.544 38.4257L267.544 56.5949C267.544 57.5866 266.74 58.3905 265.748 58.3905L222.654 58.3905C221.662 58.3905 220.858 57.5866 220.858 56.5949L220.858 38.4257C220.858 37.434 221.662 36.6301 222.654 36.6301Z" stroke="#000000" stroke-width="0.718238" fill="#FFFFFF" transform="scale(1.00139 1)"/><text font-family="Verdana,Verdana_MSFontService,sans-serif" font-weight="400" font-size="14" transform="matrix(0.719235 0 0 0.718238 226.2 51)">System</text><path d="M265.748 641.145C266.74 641.145 267.544 641.949 267.544 642.94L267.544 661.11C267.544 662.101 266.74 662.905 265.748 662.905L222.654 662.905C221.662 662.905 220.858 662.101 220.858 661.11L220.858 642.94C220.858 641.949 221.662 641.145 222.654 641.145Z" stroke="#000000" stroke-width="0.718238" fill="#FFFFFF" transform="scale(1.00139 1)"/><text font-family="Verdana,Verdana_MSFontService,sans-serif" font-weight="400" font-size="14" transform="matrix(0.719235 0 0 0.718238 226.2 656)">System</text><path d="M427.711 36.6301C428.702 36.6301 429.506 37.434 429.506 38.4257L429.506 56.5949C429.506 57.5866 428.702 58.3905 427.711 58.3905L373.843 58.3905C372.851 58.3905 372.047 57.5866 372.047 56.5949L372.047 38.4257C372.047 37.434 372.851 36.6301 373.843 36.6301Z" stroke="#000000" stroke-width="0.718238" fill="#FFFFFF" transform="scale(1.00139 1)"/><text font-family="Verdana,Verdana_MSFontService,sans-serif" font-weight="400" font-size="14" transform="matrix(0.719235 0 0 0.718238 377.599 51)">Database</text><path d="M427.711 641.145C428.702 641.145 429.506 641.949 429.506 642.94L429.506 661.11C429.506 662.101 428.702 662.905 427.711 662.905L373.843 662.905C372.851 662.905 372.047 662.101 372.047 661.11L372.047 642.94C372.047 641.949 372.851 641.145 373.843 641.145Z" stroke="#000000" stroke-width="0.718238" fill="#FFFFFF" transform="scale(1.00139 1)"/><text font-family="Verdana,Verdana_MSFontService,sans-serif" font-weight="400" font-size="14" transform="matrix(0.719235 0 0 0.718238 377.599 656)">Database</text><path d="M539.756 36.6301C540.747 36.6301 541.551 37.434 541.551 38.4257L541.551 56.5949C541.551 57.5866 540.747 58.3905 539.756 58.3905L461.468 58.3905C460.476 58.3905 459.672 57.5866 459.672 56.5949L459.672 38.4257C459.672 37.434 460.476 36.6301 461.468 36.6301Z" stroke="#000000" stroke-width="0.718238" fill="#FFFFFF" transform="scale(1.00139 1)"/><text font-family="Verdana,Verdana_MSFontService,sans-serif" font-weight="400" font-size="14" transform="matrix(0.719235 0 0 0.718238 465.345 51)">Cloud Provider</text><path d="M539.756 641.145C540.747 641.145 541.551 641.949 541.551 642.94L541.551 661.11C541.551 662.101 540.747 662.905 539.756 662.905L461.468 662.905C460.476 662.905 459.672 662.101 459.672 661.11L459.672 642.94C459.672 641.949 460.476 641.145 461.468 641.145Z" stroke="#000000" stroke-width="0.718238" fill="#FFFFFF" transform="scale(1.00139 1)"/><text font-family="Verdana,Verdana_MSFontService,sans-serif" font-weight="400" font-size="14" transform="matrix(0.719235 0 0 0.718238 465.345 656)">Cloud Provider</text><path d="M240.61 113.145 247.792 113.145 247.792 134.069 240.61 134.069Z" stroke="#000000" stroke-width="0.718238" fill="#FFFFFF" transform="scale(1.00139 1)"/><path d="M240.61 154.994 247.792 154.994 247.792 193.251 240.61 193.251Z" stroke="#000000" stroke-width="0.718238" fill="#FFFFFF" transform="scale(1.00139 1)"/><path d="M240.61 214.175 247.792 214.175 247.792 260.956 240.61 260.956Z" stroke="#000000" stroke-width="0.718238" fill="#FFFFFF" transform="scale(1.00139 1)"/><path d="M244.201 240.845 251.383 240.845 251.383 260.956 244.201 260.956Z" stroke="#000000" stroke-width="0.718238" fill="#FFFFFF" transform="scale(1.00139 1)"/><path d="M240.61 382.001 247.792 382.001 247.792 402.925 240.61 402.925Z" stroke="#000000" stroke-width="0.718238" fill="#FFFFFF" transform="scale(1.00139 1)"/><path d="M240.61 434.483 247.792 434.483 247.792 455.408 240.61 455.408Z" stroke="#000000" stroke-width="0.718238" fill="#FFFFFF" transform="scale(1.00139 1)"/><path d="M240.61 545.473 247.792 545.473 247.792 566.398 240.61 566.398Z" stroke="#000000" stroke-width="0.718238" fill="#FFFFFF" transform="scale(1.00139 1)"/><path d="M240.61 597.955 247.792 597.955 247.792 618.879 240.61 618.879Z" stroke="#000000" stroke-width="0.718238" fill="#FFFFFF" transform="scale(1.00139 1)"/><path d="M397.185 455.407 404.368 455.407 404.368 502.188 397.185 502.188Z" stroke="#000000" stroke-width="0.718238" fill="#FFFFFF" transform="scale(1.00139 1)"/><path d="M400.777 482.078 407.959 482.078 407.959 502.188 400.777 502.188Z" stroke="#000000" stroke-width="0.718238" fill="#FFFFFF" transform="scale(1.00139 1)"/><path d="M497.02 291.936 504.203 291.936 504.203 338.716 497.02 338.716Z" stroke="#000000" stroke-width="0.718238" fill="#FFFFFF" transform="scale(1.00139 1)"/><path d="M500.612 318.606 507.794 318.606 507.794 338.717 500.612 338.717Z" stroke="#000000" stroke-width="0.718238" fill="#FFFFFF" transform="scale(1.00139 1)"/><path d="M22.9836 66.2911 276.881 66.2911 276.881 94.3754 22.9836 94.3754Z" stroke="#000000" stroke-width="0.718238" fill="#FFFFFF" transform="scale(1.00139 1)"/><path d="M22.9836 66.2911 70.3873 66.2911 70.3873 71.3188 63.2049 78.5012 22.9836 78.5012 22.9836 66.2911" stroke="#000000" stroke-width="0.718238" fill="#FFFFFF" transform="scale(1.00139 1)"/><text font-family="Verdana,Verdana_MSFontService,sans-serif" font-weight="700" font-size="13" transform="matrix(0.719235 0 0 0.718238 32.3656 76)">ref</text><text font-family="Verdana,Verdana_MSFontService,sans-serif" font-weight="400" font-size="12" transform="matrix(0.719235 0 0 0.718238 121.011 89)">Authenticate</text><path d="M231.991 110.272 239.173 113.145 231.991 116.018 234.864 113.145Z" stroke="#000000" stroke-width="0.718238" transform="scale(1.00139 1)"/><path d="M44.5307 113.145 236.3 113.145" stroke="#000000" stroke-width="0.718238" fill="none" transform="scale(1.00139 1)"/><text font-family="Verdana,Verdana_MSFontService,sans-serif" font-weight="700" font-size="13" transform="matrix(0.719235 0 0 0.718238 49.6272 110)">1</text><text font-family="Verdana,Verdana_MSFontService,sans-serif" font-weight="400" font-size="13" transform="matrix(0.719235 0 0 0.718238 58.9773 110)">Asks for the documents page</text><path d="M52.4313 131.196 45.249 134.069 52.4313 136.942 49.5584 134.069Z" stroke="#000000" stroke-width="0.718238" transform="scale(1.00139 1)"/><path d="M48.1219 134.069 243.483 134.069" stroke="#000000" stroke-width="0.718238" fill="none" transform="scale(1.00139 1)"/><text font-family="Verdana,Verdana_MSFontService,sans-serif" font-weight="700" font-size="13" transform="matrix(0.719235 0 0 0.718238 56.8196 130)">2</text><text font-family="Verdana,Verdana_MSFontService,sans-serif" font-weight="400" font-size="13" transform="matrix(0.719235 0 0 0.718238 66.1697 130)">Return the documents page</text><path d="M231.991 152.121 239.173 154.994 231.991 157.866 234.864 154.994Z" stroke="#000000" stroke-width="0.718238" transform="scale(1.00139 1)"/><path d="M44.5307 154.994 236.3 154.994" stroke="#000000" stroke-width="0.718238" fill="none" transform="scale(1.00139 1)"/><text font-family="Verdana,Verdana_MSFontService,sans-serif" font-weight="700" font-size="13" transform="matrix(0.719235 0 0 0.718238 49.6272 151)">3</text><text font-family="Verdana,Verdana_MSFontService,sans-serif" font-weight="400" font-size="13" transform="matrix(0.719235 0 0 0.718238 58.9773 151)">Upload a document</text><path d="M17.9559 165.767 73.2602 165.767 73.2602 170.89 66.0779 178.073 17.9559 178.073 17.9559 165.767" stroke="#000000" stroke-width="0.718238" fill="#FFFFFF" transform="scale(1.00139 1)"/><path d="M17.9559 165.767 361.274 165.767 361.274 271.729 17.9559 271.729Z" stroke="#000000" stroke-width="0.718238" fill="none" transform="scale(1.00139 1)"/><text font-family="Verdana,Verdana_MSFontService,sans-serif" font-weight="700" font-size="13" transform="matrix(0.719235 0 0 0.718238 28.7694 175)">loop</text><text font-family="Verdana,Verdana_MSFontService,sans-serif" font-weight="700" font-size="11" transform="matrix(0.719235 0 0 0.718238 84.1505 175)">[</text><text font-family="Verdana,Verdana_MSFontService,sans-serif" font-weight="700" font-size="11" transform="matrix(0.719235 0 0 0.718238 88.4501 175)">Form inputs are incorrects</text><text font-family="Verdana,Verdana_MSFontService,sans-serif" font-weight="700" font-size="11" transform="matrix(0.719235 0 0 0.718238 206.22 175)">]</text><path d="M52.4313 190.378 45.249 193.25 52.4313 196.123 49.5584 193.25Z" stroke="#000000" stroke-width="0.718238" transform="scale(1.00139 1)"/><path d="M48.1219 193.25 243.483 193.25" stroke="#000000" stroke-width="0.718238" fill="none" transform="scale(1.00139 1)"/><text font-family="Verdana,Verdana_MSFontService,sans-serif" font-weight="700" font-size="13" transform="matrix(0.719235 0 0 0.718238 56.8196 190)">4</text><text font-family="Verdana,Verdana_MSFontService,sans-serif" font-weight="400" font-size="13" transform="matrix(0.719235 0 0 0.718238 66.1697 190)">Displays the upload document dialog</text><path d="M231.991 211.302 239.173 214.175 231.991 217.048 234.864 214.175Z" stroke="#000000" stroke-width="0.718238" transform="scale(1.00139 1)"/><path d="M44.5307 214.175 236.3 214.175" stroke="#000000" stroke-width="0.718238" fill="none" transform="scale(1.00139 1)"/><text font-family="Verdana,Verdana_MSFontService,sans-serif" font-weight="700" font-size="13" transform="matrix(0.719235 0 0 0.718238 49.6272 211)">5</text><text font-family="Verdana,Verdana_MSFontService,sans-serif" font-weight="400" font-size="13" transform="matrix(0.719235 0 0 0.718238 58.9773 211)">Fill in the required fields</text><path d="M251.383 235.099 281.549 235.099" stroke="#000000" stroke-width="0.718238" fill="none" transform="scale(1.00139 1)"/><path d="M281.549 235.099 281.549 244.436" stroke="#000000" stroke-width="0.718238" fill="none" transform="scale(1.00139 1)"/><path d="M252.101 244.436 281.549 244.436" stroke="#000000" stroke-width="0.718238" fill="none" transform="scale(1.00139 1)"/><path d="M259.284 241.563 252.101 244.436 259.284 247.309 256.411 244.436Z" stroke="#000000" stroke-width="0.718238" transform="scale(1.00139 1)"/><text font-family="Verdana,Verdana_MSFontService,sans-serif" font-weight="700" font-size="13" transform="matrix(0.719235 0 0 0.718238 256.767 231)">6</text><text font-family="Verdana,Verdana_MSFontService,sans-serif" font-weight="400" font-size="13" transform="matrix(0.719235 0 0 0.718238 266.117 231)">Validate the form</text><path d="M488.402 289.063 495.584 291.936 488.402 294.809 491.275 291.936Z" stroke="#000000" stroke-width="0.718238" transform="scale(1.00139 1)"/><path d="M244.201 291.936 492.711 291.936" stroke="#000000" stroke-width="0.718238" fill="none" transform="scale(1.00139 1)"/><text font-family="Verdana,Verdana_MSFontService,sans-serif" font-weight="700" font-size="13" transform="matrix(0.719235 0 0 0.718238 249.575 288)">7</text><text font-family="Verdana,Verdana_MSFontService,sans-serif" font-weight="400" font-size="13" transform="matrix(0.719235 0 0 0.718238 258.925 288)">Send request</text><path d="M507.794 312.86 537.96 312.86" stroke="#000000" stroke-width="0.718238" fill="none" transform="scale(1.00139 1)"/><path d="M537.96 312.86 537.96 322.197" stroke="#000000" stroke-width="0.718238" fill="none" transform="scale(1.00139 1)"/><path d="M508.512 322.197 537.96 322.197" stroke="#000000" stroke-width="0.718238" fill="none" transform="scale(1.00139 1)"/><path d="M515.695 319.324 508.512 322.197 515.695 325.07 512.822 322.197Z" stroke="#000000" stroke-width="0.718238" transform="scale(1.00139 1)"/><text font-family="Verdana,Verdana_MSFontService,sans-serif" font-weight="700" font-size="13" transform="matrix(0.719235 0 0 0.718238 513.534 309)">8</text><text font-family="Verdana,Verdana_MSFontService,sans-serif" font-weight="400" font-size="13" transform="matrix(0.719235 0 0 0.718238 522.884 309)">Process request</text><path d="M10.7736 354.518 56.7408 354.518 56.7408 359.641 49.5584 366.823 10.7736 366.823 10.7736 354.518" stroke="#000000" stroke-width="0.718238" fill="#FFFFFF" transform="scale(1.00139 1)"/><path d="M10.7736 354.518 555.916 354.518 555.916 629.653 10.7736 629.653Z" stroke="#000000" stroke-width="0.718238" fill="none" transform="scale(1.00139 1)"/><text font-family="Verdana,Verdana_MSFontService,sans-serif" font-weight="700" font-size="13" transform="matrix(0.719235 0 0 0.718238 21.5771 364)">alt</text><text font-family="Verdana,Verdana_MSFontService,sans-serif" font-weight="700" font-size="11" transform="matrix(0.719235 0 0 0.718238 67.6081 363)">[</text><text font-family="Verdana,Verdana_MSFontService,sans-serif" font-weight="700" font-size="11" transform="matrix(0.719235 0 0 0.718238 71.9077 363)">Cloud provider error</text><text font-family="Verdana,Verdana_MSFontService,sans-serif" font-weight="700" font-size="11" transform="matrix(0.719235 0 0 0.718238 162.288 363)">]</text><path d="M255.693 379.128 248.51 382.001 255.693 384.874 252.82 382.001Z" stroke="#000000" stroke-width="0.718238" transform="scale(1.00139 1)"/><path d="M251.383 382.001 499.893 382.001" stroke="#000000" stroke-width="0.718238" stroke-dasharray="1.43648 1.43648" fill="none" transform="scale(1.00139 1)"/><text font-family="Verdana,Verdana_MSFontService,sans-serif" font-weight="700" font-size="13" transform="matrix(0.719235 0 0 0.718238 260.363 378)">9</text><text font-family="Verdana,Verdana_MSFontService,sans-serif" font-weight="400" font-size="13" transform="matrix(0.719235 0 0 0.718238 269.713 378)">Return error message</text><path d="M52.4313 400.053 45.249 402.926 52.4313 405.799 49.5584 402.926Z" stroke="#000000" stroke-width="0.718238" transform="scale(1.00139 1)"/><path d="M48.1219 402.926 243.483 402.926" stroke="#000000" stroke-width="0.718238" fill="none" transform="scale(1.00139 1)"/><text font-family="Verdana,Verdana_MSFontService,sans-serif" font-weight="700" font-size="13" transform="matrix(0.719235 0 0 0.718238 56.8196 399)">10</text><text font-family="Verdana,Verdana_MSFontService,sans-serif" font-weight="400" font-size="13" transform="matrix(0.719235 0 0 0.718238 72.6428 399)">Display error message</text><path d="M10.7736 409.39 555.916 409.39" stroke="#000000" stroke-width="0.718238" stroke-dasharray="1.43648 1.43648" fill="none" transform="scale(1.00139 1)"/><text font-family="Verdana,Verdana_MSFontService,sans-serif" font-weight="700" font-size="11" transform="matrix(0.719235 0 0 0.718238 14.3847 417)">[</text><text font-family="Verdana,Verdana_MSFontService,sans-serif" font-weight="700" font-size="11" transform="matrix(0.719235 0 0 0.718238 18.6843 417)">Document uploaded successfully</text><text font-family="Verdana,Verdana_MSFontService,sans-serif" font-weight="700" font-size="11" transform="matrix(0.719235 0 0 0.718238 163.971 417)">]</text><path d="M255.693 431.611 248.51 434.483 255.693 437.356 252.82 434.483Z" stroke="#000000" stroke-width="0.718238" transform="scale(1.00139 1)"/><path d="M251.383 434.483 499.893 434.483" stroke="#000000" stroke-width="0.718238" stroke-dasharray="1.43648 1.43648" fill="none" transform="scale(1.00139 1)"/><text font-family="Verdana,Verdana_MSFontService,sans-serif" font-weight="700" font-size="13" transform="matrix(0.719235 0 0 0.718238 260.363 431)">11</text><text font-family="Verdana,Verdana_MSFontService,sans-serif" font-weight="400" font-size="13" transform="matrix(0.719235 0 0 0.718238 276.186 431)">Return success message</text><path d="M388.567 452.534 395.749 455.407 388.567 458.28 391.44 455.407Z" stroke="#000000" stroke-width="0.718238" transform="scale(1.00139 1)"/><path d="M244.201 455.407 392.876 455.407" stroke="#000000" stroke-width="0.718238" fill="none" transform="scale(1.00139 1)"/><text font-family="Verdana,Verdana_MSFontService,sans-serif" font-weight="700" font-size="13" transform="matrix(0.719235 0 0 0.718238 249.575 452)">12</text><text font-family="Verdana,Verdana_MSFontService,sans-serif" font-weight="400" font-size="13" transform="matrix(0.719235 0 0 0.718238 265.398 452)">Send request to database</text><path d="M407.959 476.332 438.125 476.332" stroke="#000000" stroke-width="0.718238" fill="none" transform="scale(1.00139 1)"/><path d="M438.125 476.332 438.125 485.669" stroke="#000000" stroke-width="0.718238" fill="none" transform="scale(1.00139 1)"/><path d="M408.677 485.669 438.125 485.669" stroke="#000000" stroke-width="0.718238" fill="none" transform="scale(1.00139 1)"/><path d="M415.86 482.796 408.677 485.669 415.86 488.542 412.987 485.669Z" stroke="#000000" stroke-width="0.718238" transform="scale(1.00139 1)"/><text font-family="Verdana,Verdana_MSFontService,sans-serif" font-weight="700" font-size="13" transform="matrix(0.719235 0 0 0.718238 413.56 473)">13</text><text font-family="Verdana,Verdana_MSFontService,sans-serif" font-weight="400" font-size="13" transform="matrix(0.719235 0 0 0.718238 429.384 473)">Save file URL</text><path d="M17.9559 517.989 63.9231 517.989 63.9231 523.113 56.7408 530.295 17.9559 530.295 17.9559 517.989" stroke="#000000" stroke-width="0.718238" fill="#FFFFFF" transform="scale(1.00139 1)"/><path d="M17.9559 517.989 443.871 517.989 443.871 624.625 17.9559 624.625Z" stroke="#000000" stroke-width="0.718238" fill="none" transform="scale(1.00139 1)"/><text font-family="Verdana,Verdana_MSFontService,sans-serif" font-weight="700" font-size="13" transform="matrix(0.719235 0 0 0.718238 28.7694 527)">alt</text><text font-family="Verdana,Verdana_MSFontService,sans-serif" font-weight="700" font-size="11" transform="matrix(0.719235 0 0 0.718238 74.8005 527)">[</text><text font-family="Verdana,Verdana_MSFontService,sans-serif" font-weight="700" font-size="11" transform="matrix(0.719235 0 0 0.718238 79.1001 527)">File URL was not saved in the database</text><text font-family="Verdana,Verdana_MSFontService,sans-serif" font-weight="700" font-size="11" transform="matrix(0.719235 0 0 0.718238 253.101 527)">]</text><path d="M255.693 542.601 248.51 545.473 255.693 548.346 252.82 545.473Z" stroke="#000000" stroke-width="0.718238" transform="scale(1.00139 1)"/><path d="M251.383 545.473 400.058 545.473" stroke="#000000" stroke-width="0.718238" stroke-dasharray="1.43648 1.43648" fill="none" transform="scale(1.00139 1)"/><text font-family="Verdana,Verdana_MSFontService,sans-serif" font-weight="700" font-size="13" transform="matrix(0.719235 0 0 0.718238 260.363 542)">14</text><text font-family="Verdana,Verdana_MSFontService,sans-serif" font-weight="400" font-size="13" transform="matrix(0.719235 0 0 0.718238 276.186 542)">Return error message</text><path d="M52.4313 563.525 45.249 566.398 52.4313 569.271 49.5584 566.398Z" stroke="#000000" stroke-width="0.718238" transform="scale(1.00139 1)"/><path d="M48.1219 566.398 243.483 566.398" stroke="#000000" stroke-width="0.718238" fill="none" transform="scale(1.00139 1)"/><text font-family="Verdana,Verdana_MSFontService,sans-serif" font-weight="700" font-size="13" transform="matrix(0.719235 0 0 0.718238 56.8196 563)">15</text><text font-family="Verdana,Verdana_MSFontService,sans-serif" font-weight="400" font-size="13" transform="matrix(0.719235 0 0 0.718238 72.6428 563)">Display error message</text><path d="M17.9559 572.862 443.871 572.862" stroke="#000000" stroke-width="0.718238" stroke-dasharray="1.43648 1.43648" fill="none" transform="scale(1.00139 1)"/><text font-family="Verdana,Verdana_MSFontService,sans-serif" font-weight="700" font-size="11" transform="matrix(0.719235 0 0 0.718238 21.5771 580)">[</text><text font-family="Verdana,Verdana_MSFontService,sans-serif" font-weight="700" font-size="11" transform="matrix(0.719235 0 0 0.718238 25.8767 580)">File URL saved in the database</text><text font-family="Verdana,Verdana_MSFontService,sans-serif" font-weight="700" font-size="11" transform="matrix(0.719235 0 0 0.718238 162.07 580)">]</text><path d="M255.693 595.082 248.51 597.955 255.693 600.828 252.82 597.955Z" stroke="#000000" stroke-width="0.718238" transform="scale(1.00139 1)"/><path d="M251.383 597.955 400.058 597.955" stroke="#000000" stroke-width="0.718238" stroke-dasharray="1.43648 1.43648" fill="none" transform="scale(1.00139 1)"/><text font-family="Verdana,Verdana_MSFontService,sans-serif" font-weight="700" font-size="13" transform="matrix(0.719235 0 0 0.718238 260.363 594)">16</text><text font-family="Verdana,Verdana_MSFontService,sans-serif" font-weight="400" font-size="13" transform="matrix(0.719235 0 0 0.718238 276.186 594)">Return success message</text><path d="M52.4313 616.007 45.249 618.88 52.4313 621.752 49.5584 618.88Z" stroke="#000000" stroke-width="0.718238" transform="scale(1.00139 1)"/><path d="M48.1219 618.88 243.483 618.88" stroke="#000000" stroke-width="0.718238" fill="none" transform="scale(1.00139 1)"/><text font-family="Verdana,Verdana_MSFontService,sans-serif" font-weight="700" font-size="13" transform="matrix(0.719235 0 0 0.718238 56.8196 615)">17</text><text font-family="Verdana,Verdana_MSFontService,sans-serif" font-weight="400" font-size="13" transform="matrix(0.719235 0 0 0.718238 72.6428 615)">Display success message</text></g></svg>